<svg width="32" height="32" viewBox="0 0 32 32" fill="none" xmlns="http://www.w3.org/2000/svg">
<path d="M8 24C8 22.9391 8.42143 21.9217 9.17157 21.1716C9.92172 20.4214 10.9391 20 12 20H16V24C16 25.0609 15.5786 26.0783 14.8284 26.8284C14.0783 27.5786 13.0609 28 12 28C10.9391 28 9.92172 27.5786 9.17157 26.8284C8.42143 26.0783 8 25.0609 8 24ZM12 20H16V12H12C10.9391 12 9.92172 12.4214 9.17157 13.1716C8.42143 13.9217 8 14.9391 8 16C8 17.0609 8.42143 18.0783 9.17157 18.8284C9.92172 19.5786 10.9391 20 12 20V20ZM12 12H16V4H12C10.9391 4 9.92172 4.42143 9.17157 5.17157C8.42143 5.92172 8 6.93913 8 8C8 9.06087 8.42143 10.0783 9.17157 10.8284C9.92172 11.5786 10.9391 12 12 12V12ZM16 12H20C21.0609 12 22.0783 11.5786 22.8284 10.8284C23.5786 10.0783 24 9.06087 24 8C24 6.93913 23.5786 5.92172 22.8284 5.17157C22.0783 4.42143 21.0609 4 20 4H16V12ZM20 12C19.2089 12 18.4355 12.2346 17.7777 12.6741C17.1199 13.1136 16.6072 13.7384 16.3045 14.4693C16.0017 15.2002 15.9225 16.0044 16.0769 16.7804C16.2312 17.5563 16.6122 18.269 17.1716 18.8284C17.731 19.3878 18.4437 19.7688 19.2196 19.9231C19.9956 20.0775 20.7998 19.9983 21.5307 19.6955C22.2616 19.3928 22.8864 18.8801 23.3259 18.2223C23.7654 17.5645 24 16.7911 24 16C24 14.9391 23.5786 13.9217 22.8284 13.1716C22.0783 12.4214 21.0609 12 20 12V12Z" fill="black"/>
</svg>
