<?xml version="1.0" standalone="no"?>
<!DOCTYPE svg PUBLIC "-//W3C//DTD SVG 20010904//EN"
 "http://www.w3.org/TR/2001/REC-SVG-20010904/DTD/svg10.dtd">
<svg version="1.0" xmlns="http://www.w3.org/2000/svg"
 width="700.000000pt" height="700.000000pt" viewBox="0 0 700.000000 700.000000"
 preserveAspectRatio="xMidYMid meet">
<metadata>
Created by potrace 1.11, written by Peter Selinger 2001-2013
</metadata>
<g transform="translate(0.000000,700.000000) scale(0.100000,-0.100000)"
fill="#000000" stroke="none">
<path d="M1365 6988 c-3 -7 -101 -420 -218 -918 l-214 -905 285 -3 284 -2 -6
-23 c-27 -110 -1196 -5118 -1196 -5126 0 -8 278 -11 935 -11 514 0 935 1 935
3 0 1 98 411 218 912 l217 910 735 6 c683 5 744 7 865 27 282 45 527 112 764
208 986 400 1587 1132 1717 2094 21 156 24 531 5 670 -77 567 -299 1013 -692
1395 -452 439 -1073 707 -1772 764 -198 17 -2856 15 -2862 -1z m2850 -1851
c130 -24 204 -47 305 -95 78 -37 109 -59 171 -121 107 -106 149 -197 170 -362
25 -196 -36 -387 -172 -534 -137 -148 -384 -266 -668 -317 -102 -18 -168 -21
-539 -25 -234 -3 -427 -1 -432 3 -4 5 59 288 141 629 82 341 161 671 175 734
l27 113 371 -5 c259 -4 395 -10 451 -20z"/>
</g>
</svg>
