<?xml version="1.0" encoding="UTF-8"?>
<svg width="32px" height="32px" viewBox="0 0 32 32" version="1.1" xmlns="http://www.w3.org/2000/svg" xmlns:xlink="http://www.w3.org/1999/xlink">
    <!-- Generator: Sketch 64 (93537) - https://sketch.com -->
    <title>businessman</title>
    <desc>Created with Sketch.</desc>
    <g id="businessman" stroke="none" stroke-width="1" fill="none" fill-rule="evenodd">
        <g id="4-Filled-Line/Business-&amp;-Finance/businessman">
            <path d="M30,30 C30,22.2680135 23.7319865,16 16,16 C8.2680135,16 2,22.2680135 2,30 C2,30 30,30 30,30 Z" id="Oval" fill="#FFFFFF"></path>
            <circle id="Oval" fill="#FFFFFF" cx="15.5" cy="8.5" r="6.5"></circle>
            <g id="Page-1" stroke-width="1">
                <polygon id="Fill-1" points="0 32 32 32 32 0 0 0"></polygon>
                <g id="Group-6" transform="translate(1.000000, 1.000000)">
                    <path d="M17.9961,14.9097 C17.9491,14.3947 17.5171,13.9997 17.0001,13.9997 L13.0001,13.9997 C12.4831,13.9997 12.0511,14.3947 12.0041,14.9097 L11.0041,25.9097 C10.9771,26.2047 11.0831,26.4967 11.2931,26.7067 L14.2931,29.7067 C14.6831,30.0977 15.3161,30.0977 15.7071,29.7067 L18.7071,26.7067 C18.9171,26.4967 19.0221,26.2047 18.9961,25.9097 L17.9961,14.9097 Z" id="Fill-2" fill="#1BB5EC"></path>
                    <path d="M17.4141,28 L18.7071,26.707 C18.9171,26.497 19.0221,26.205 18.9961,25.91 L18.1311,16.396 C23.4761,17.726 27.5301,22.358 27.9621,28 L17.4141,28 Z M15.0001,27.586 L13.0381,25.624 L13.9081,16.053 C14.7471,15.982 15.2521,15.982 16.0921,16.053 L16.9621,25.624 L15.0001,27.586 Z M2.0381,28 C2.4691,22.358 6.5231,17.726 11.8691,16.396 L11.0041,25.91 C10.9771,26.205 11.0831,26.497 11.2931,26.707 L12.5861,28 L2.0381,28 Z M9.0001,8 C9.0001,4.691 11.6911,2 15.0001,2 C18.3091,2 21.0001,4.691 21.0001,8 C21.0001,11.309 18.3091,14 15.0001,14 C11.6911,14 9.0001,11.309 9.0001,8 L9.0001,8 Z M19.4151,14.665 C21.5731,13.23 23.0001,10.78 23.0001,8 C23.0001,3.589 19.4111,0 15.0001,0 C10.5891,0 7.0001,3.589 7.0001,8 C7.0001,10.78 8.4271,13.231 10.5851,14.665 C4.4621,16.555 0.0001,22.265 0.0001,29 C0.0001,29.552 0.4481,30 1.0001,30 L29.0001,30 C29.5531,30 30.0001,29.552 30.0001,29 C30.0001,22.265 25.5381,16.555 19.4151,14.665 L19.4151,14.665 Z" id="Fill-4" fill="#364F6B"></path>
                </g>
            </g>
        </g>
    </g>
</svg>