<?xml version="1.0" encoding="UTF-8"?>
<svg width="30px" height="26px" viewBox="0 0 30 26" version="1.1" xmlns="http://www.w3.org/2000/svg" xmlns:xlink="http://www.w3.org/1999/xlink">
    <!-- Generator: Sketch 64 (93537) - https://sketch.com -->
    <title>hashtag</title>
    <desc>Created with Sketch.</desc>
    <g id="4-Filled-Line" stroke="none" stroke-width="1" fill="none" fill-rule="evenodd">
        <g id="hashtag" transform="translate(-1.000000, -3.000000)">
            <g id="4-Filled-Line/Social-Media/hashtag">
                <rect id="Rectangle" fill="#FFFFFF" x="2" y="4" width="28" height="9"></rect>
                <g id="Page-1" stroke-width="1">
                    <polygon id="Fill-1" points="0 32 32 32 32 0 0 0"></polygon>
                    <g id="Group-8" transform="translate(1.000000, 3.000000)">
                        <path d="M0,17 C0,18.654 1.346,20 3,20 L18.571,20 L24.23,25.704 C24.517,25.993 24.946,26.078 25.317,25.926 C25.691,25.774 25.937,25.412 25.94,25.008 L25.98,20 L27,20 C28.654,20 30,18.654 30,17 L30,10 L0,10 L0,17 Z" id="Fill-2" fill="#1BB5EC"></path>
                        <path d="M28,17 C28,17.551 27.552,18 27,18 L24.988,18 C24.439,18 23.993,18.443 23.988,18.992 L23.96,22.591 L19.698,18.296 C19.511,18.106 19.255,18 18.988,18 L3,18 C2.448,18 2,17.551 2,17 L2,3 C2,2.449 2.448,2 3,2 L27,2 C27.552,2 28,2.449 28,3 L28,17 Z M27,0 L3,0 C1.346,0 0,1.346 0,3 L0,17 C0,18.654 1.346,20 3,20 L18.571,20 L24.23,25.704 C24.517,25.993 24.946,26.078 25.317,25.926 C25.691,25.774 25.937,25.412 25.94,25.008 L25.98,20 L27,20 C28.654,20 30,18.654 30,17 L30,3 C30,1.346 28.654,0 27,0 L27,0 Z" id="Fill-4" fill="#364F6B"></path>
                        <path d="M16.1563,11 L12.2443,11 L12.8433,9 L16.7563,9 L16.1563,11 Z M21.0003,7 L19.4443,7 L19.9583,5.287 C20.1163,4.758 19.8163,4.201 19.2873,4.042 C18.7573,3.881 18.2003,4.184 18.0423,4.713 L17.3553,7 L13.4443,7 L13.9583,5.287 C14.1163,4.758 13.8163,4.201 13.2873,4.042 C12.7553,3.881 12.2003,4.184 12.0423,4.713 L11.3553,7 L9.0003,7 C8.4473,7 8.0003,7.448 8.0003,8 C8.0003,8.552 8.4473,9 9.0003,9 L10.7563,9 L10.1563,11 L8.0003,11 C7.4473,11 7.0003,11.448 7.0003,12 C7.0003,12.552 7.4473,13 8.0003,13 L9.5553,13 L9.0423,14.713 C8.8843,15.242 9.1833,15.799 9.7133,15.958 C10.2383,16.116 10.7993,15.82 10.9583,15.287 L11.6443,13 L15.5553,13 L15.0423,14.713 C14.8843,15.242 15.1833,15.799 15.7133,15.958 C16.2383,16.116 16.7993,15.82 16.9583,15.287 L17.6443,13 L20.0003,13 C20.5523,13 21.0003,12.552 21.0003,12 C21.0003,11.448 20.5523,11 20.0003,11 L18.2443,11 L18.8443,9 L21.0003,9 C21.5523,9 22.0003,8.552 22.0003,8 C22.0003,7.448 21.5523,7 21.0003,7 L21.0003,7 Z" id="Fill-6" fill="#364F6B"></path>
                    </g>
                </g>
            </g>
        </g>
    </g>
</svg>