<?xml version="1.0" encoding="UTF-8"?>
<svg width="24px" height="30px" viewBox="0 0 24 30" version="1.1" xmlns="http://www.w3.org/2000/svg" xmlns:xlink="http://www.w3.org/1999/xlink">
    <!-- Generator: Sketch 64 (93537) - https://sketch.com -->
    <title>microscope</title>
    <desc>Created with Sketch.</desc>
    <g id="4-Filled-Line" stroke="none" stroke-width="1" fill="none" fill-rule="evenodd">
        <g id="microscope" transform="translate(-4.000000, -1.000000)">
            <g id="4-Filled-Line/Medical/microscope">
                <polygon id="Path-2" fill="#FFFFFF" points="8 30 9 27 11 26 23 26 25 27 26 30"></polygon>
                <g id="Page-1" stroke-width="1">
                    <polygon id="Fill-1" points="0 32 32 32 32 0 0 0"></polygon>
                    <g id="Group-6" transform="translate(4.000000, 1.000000)">
                        <path d="M9.1567,12.707 C9.5477,13.098 10.1797,13.098 10.5707,12.707 L18.7067,4.571 C19.0977,4.18 19.0977,3.547 18.7067,3.157 L15.8437,0.293 C15.4527,-0.098 14.8197,-0.098 14.4287,0.293 L6.2927,8.429 C5.9027,8.82 5.9027,9.453 6.2927,9.843 L9.1567,12.707 Z" id="Fill-2" fill="#1BB5EC"></path>
                        <path d="M5,28 L6.5,26 L19.5,26 L21,28 L5,28 Z M9.864,10.586 L8.414,9.136 L15.136,2.414 L16.586,3.864 L9.864,10.586 Z M23.8,28.4 L20.8,24.4 C20.611,24.148 20.315,24 20,24 L18.644,24 C20.688,22.349 22,19.826 22,17 C22,12.739 19.02,9.168 15.037,8.241 L18.707,4.571 C19.098,4.18 19.098,3.547 18.707,3.157 L15.843,0.293 C15.453,-0.098 14.82,-0.098 14.429,0.293 L6.293,8.429 C5.902,8.82 5.902,9.453 6.293,9.843 L9.157,12.707 C9.547,13.098 10.18,13.098 10.571,12.707 L13.265,10.013 C17.001,10.154 20,13.229 20,17 C20,20.86 16.86,24 13,24 C9.48,24 6.567,21.387 6.08,18 L9,18 C9.552,18 10,17.552 10,17 C10,16.448 9.552,16 9,16 L1,16 C0.448,16 0,16.448 0,17 C0,17.552 0.448,18 1,18 L4.059,18 C4.328,20.417 5.557,22.546 7.356,24 L6,24 C5.685,24 5.389,24.148 5.2,24.4 L2.2,28.4 C1.973,28.703 1.936,29.108 2.105,29.447 C2.275,29.786 2.621,30 3,30 L23,30 C23.379,30 23.725,29.786 23.895,29.447 C24.064,29.108 24.027,28.703 23.8,28.4 L23.8,28.4 Z" id="Fill-4" fill="#364F6B"></path>
                    </g>
                </g>
            </g>
        </g>
    </g>
</svg>