<?xml version="1.0" encoding="UTF-8"?>
<svg width="30px" height="26px" viewBox="0 0 30 26" version="1.1" xmlns="http://www.w3.org/2000/svg" xmlns:xlink="http://www.w3.org/1999/xlink">
    <!-- Generator: Sketch 64 (93537) - https://sketch.com -->
    <title>subdomain</title>
    <desc>Created with Sketch.</desc>
    <g id="4-Filled-Line" stroke="none" stroke-width="1" fill="none" fill-rule="evenodd">
        <g id="subdomain" transform="translate(-1.000000, -3.000000)">
            <g id="4-Filled-Line/SEO/subdomain">
                <g id="Page-1">
                    <polygon id="Fill-1" points="0 32 32 32 32 0 0 0"></polygon>
                    <g id="Group-16" transform="translate(1.000000, 3.000000)">
                        <path d="M5,18 L3,18 C1.346,18 0,19.346 0,21 L0,23 C0,24.654 1.346,26 3,26 L5,26 C6.654,26 8,24.654 8,23 L8,21 C8,19.346 6.654,18 5,18" id="Fill-2" fill="#1BB5EC"></path>
                        <path d="M16,18 L14,18 C12.346,18 11,19.346 11,21 L11,23 C11,24.654 12.346,26 14,26 L16,26 C17.654,26 19,24.654 19,23 L19,21 C19,19.346 17.654,18 16,18" id="Fill-4" fill="#1BB5EC"></path>
                        <path d="M27,18 L25,18 C23.346,18 22,19.346 22,21 L22,23 C22,24.654 23.346,26 25,26 L27,26 C28.654,26 30,24.654 30,23 L30,21 C30,19.346 28.654,18 27,18" id="Fill-6" fill="#1BB5EC"></path>
                        <path d="M3.0303,5.2432 C3.1263,5.6272 3.4393,5.9182 3.8293,5.9862 C4.2223,6.0522 4.6123,5.8852 4.8323,5.5552 L6.0003,3.8032 L7.1683,5.5552 C7.3833,5.8772 7.7693,6.0542 8.1713,5.9862 C8.5603,5.9182 8.8743,5.6272 8.9693,5.2432 L9.9693,1.2432 C10.1043,0.7072 9.7783,0.1642 9.2423,0.0302 C8.7063,-0.1048 8.1643,0.2222 8.0303,0.7582 L7.5783,2.5652 L6.8323,1.4462 C6.4613,0.8892 5.5393,0.8892 5.1683,1.4462 L4.4223,2.5652 L3.9693,0.7582 C3.8363,0.2222 3.2913,-0.1038 2.7583,0.0302 C2.2213,0.1642 1.8953,0.7072 2.0303,1.2432 L3.0303,5.2432 Z" id="Fill-8" fill="#364F6B"></path>
                        <path d="M12.0303,5.2432 C12.1263,5.6272 12.4393,5.9182 12.8293,5.9862 C13.2233,6.0522 13.6123,5.8852 13.8323,5.5552 L15.0003,3.8032 L16.1683,5.5552 C16.3833,5.8772 16.7693,6.0542 17.1713,5.9862 C17.5603,5.9182 17.8743,5.6272 17.9693,5.2432 L18.9693,1.2432 C19.1043,0.7072 18.7783,0.1642 18.2423,0.0302 C17.7073,-0.1048 17.1633,0.2222 17.0303,0.7582 L16.5783,2.5652 L15.8323,1.4462 C15.4613,0.8892 14.5393,0.8892 14.1683,1.4462 L13.4223,2.5652 L12.9693,0.7582 C12.8363,0.2222 12.2923,-0.1038 11.7583,0.0302 C11.2213,0.1642 10.8953,0.7072 11.0303,1.2432 L12.0303,5.2432 Z" id="Fill-10" fill="#364F6B"></path>
                        <path d="M21.0303,5.2432 C21.1263,5.6272 21.4393,5.9182 21.8293,5.9862 C22.2233,6.0522 22.6123,5.8852 22.8323,5.5552 L24.0003,3.8032 L25.1683,5.5552 C25.3833,5.8772 25.7693,6.0542 26.1713,5.9862 C26.5603,5.9182 26.8743,5.6272 26.9693,5.2432 L27.9693,1.2432 C28.1043,0.7072 27.7783,0.1642 27.2423,0.0302 C26.7073,-0.1048 26.1633,0.2222 26.0303,0.7582 L25.5783,2.5652 L24.8323,1.4462 C24.4613,0.8892 23.5393,0.8892 23.1683,1.4462 L22.4223,2.5652 L21.9693,0.7582 C21.8363,0.2222 21.2933,-0.1038 20.7583,0.0302 C20.2213,0.1642 19.8953,0.7072 20.0303,1.2432 L21.0303,5.2432 Z" id="Fill-12" fill="#364F6B"></path>
                        <path d="M28,23 C28,23.551 27.552,24 27,24 L25,24 C24.448,24 24,23.551 24,23 L24,21 C24,20.449 24.448,20 25,20 L27,20 C27.552,20 28,20.449 28,21 L28,23 Z M17,21 L17,23 C17,23.551 16.552,24 16,24 L14,24 C13.448,24 13,23.551 13,23 L13,21 C13,20.449 13.448,20 14,20 L16,20 C16.552,20 17,20.449 17,21 L17,21 Z M6,21 L6,23 C6,23.551 5.552,24 5,24 L3,24 C2.448,24 2,23.551 2,23 L2,21 C2,20.449 2.448,20 3,20 L5,20 C5.552,20 6,20.449 6,21 L6,21 Z M27,18 L27,14 C27,13.448 26.553,13 26,13 L16,13 L16,9 C16,8.448 15.553,8 15,8 C14.447,8 14,8.448 14,9 L14,13 L4,13 C3.447,13 3,13.448 3,14 L3,18 C1.346,18 0,19.346 0,21 L0,23 C0,24.654 1.346,26 3,26 L5,26 C6.654,26 8,24.654 8,23 L8,21 C8,19.346 6.654,18 5,18 L5,15 L14,15 L14,18 C12.346,18 11,19.346 11,21 L11,23 C11,24.654 12.346,26 14,26 L16,26 C17.654,26 19,24.654 19,23 L19,21 C19,19.346 17.654,18 16,18 L16,15 L25,15 L25,18 C23.346,18 22,19.346 22,21 L22,23 C22,24.654 23.346,26 25,26 L27,26 C28.654,26 30,24.654 30,23 L30,21 C30,19.346 28.654,18 27,18 L27,18 Z" id="Fill-14" fill="#364F6B"></path>
                    </g>
                </g>
            </g>
        </g>
    </g>
</svg>