<?xml version="1.0" encoding="UTF-8"?>
<svg width="30px" height="24px" viewBox="0 0 30 24" version="1.1" xmlns="http://www.w3.org/2000/svg" xmlns:xlink="http://www.w3.org/1999/xlink">
    <!-- Generator: Sketch 64 (93537) - https://sketch.com -->
    <title>book</title>
    <desc>Created with Sketch.</desc>
    <g id="4-Filled-Line" stroke="none" stroke-width="1" fill="none" fill-rule="evenodd">
        <g id="book" transform="translate(-1.000000, -4.000000)">
            <g id="4-Filled-Line/Communication/book">
                <polygon id="Path-5" fill="#FFFFFF" points="16 7 16 27 10 25 8 25 2 27 2 7 8 5 10 5"></polygon>
                <g id="Page-1" stroke-width="1">
                    <polygon id="Fill-1" points="0 32 32 32 32 0 0 0"></polygon>
                    <g id="Group-18" transform="translate(1.000000, 4.000000)">
                        <path d="M29.5283,2.1367 C29.8213,2.3197 30.0003,2.6397 30.0003,2.9867 L30.0003,22.9977 C30.0003,23.7827 29.1333,24.2617 28.4713,23.8477 C24.5403,21.3987 19.4603,21.3987 15.5283,23.8477 C15.3673,23.9487 15.1833,23.9987 15.0003,23.9987 L15.0003,1.8237 C19.4953,-0.7093 25.1313,-0.6033 29.5283,2.1367" id="Fill-2" fill="#1BB5EC"></path>
                        <path d="M28,21.3252 C23.877,19.4202 18.989,19.5902 15,21.8362 C11.029,19.5992 6.144,19.4102 2,21.3252 L2,3.5562 C5.859,1.3902 10.695,1.4832 14.472,3.8352 C14.794,4.0372 15.206,4.0372 15.528,3.8352 C19.306,1.4832 24.141,1.3902 28,3.5562 L28,21.3252 Z M29.528,2.1372 C25.131,-0.6038 19.495,-0.7078 15,1.8232 C10.505,-0.7088 4.869,-0.6038 0.472,2.1372 C0.179,2.3192 0,2.6402 0,2.9862 L0,22.9992 C0,23.3632 0.197,23.6982 0.515,23.8742 C0.833,24.0512 1.221,24.0412 1.528,23.8482 C5.46,21.3992 10.54,21.3992 14.472,23.8482 C14.633,23.9492 14.816,24.0002783 15,24.0002783 C15.184,24.0002783 15.367,23.9492 15.528,23.8482 C19.46,21.3992 24.54,21.3992 28.472,23.8482 C28.779,24.0412 29.167,24.0502 29.485,23.8742 C29.803,23.6982 30,23.3632 30,22.9992 L30,2.9862 C30,2.6402 29.821,2.3192 29.528,2.1372 L29.528,2.1372 Z" id="Fill-4" fill="#364F6B"></path>
                        <path d="M10,6.9893 L6,6.9893 C5.447,6.9893 5,7.4363 5,7.9893 C5,8.5433 5.447,8.9903 6,8.9903 L10,8.9903 C10.553,8.9903 11,8.5433 11,7.9893 C11,7.4363 10.553,6.9893 10,6.9893" id="Fill-6" fill="#364F6B"></path>
                        <path d="M10,10.9912 L6,10.9912 C5.447,10.9912 5,11.4382 5,11.9922 C5,12.5452 5.447,12.9932 6,12.9932 L10,12.9932 C10.553,12.9932 11,12.5452 11,11.9922 C11,11.4382 10.553,10.9912 10,10.9912" id="Fill-8" fill="#364F6B"></path>
                        <path d="M10,14.9941 L6,14.9941 C5.447,14.9941 5,15.4411 5,15.9951 C5,16.5481 5.447,16.9951 6,16.9951 L10,16.9951 C10.553,16.9951 11,16.5481 11,15.9951 C11,15.4411 10.553,14.9941 10,14.9941" id="Fill-10" fill="#364F6B"></path>
                        <path d="M19,7.9893 C19,8.5433 19.447,8.9903 20,8.9903 L24,8.9903 C24.553,8.9903 25,8.5433 25,7.9893 C25,7.4363 24.553,6.9893 24,6.9893 L20,6.9893 C19.447,6.9893 19,7.4363 19,7.9893" id="Fill-12" fill="#364F6B"></path>
                        <path d="M24,10.9912 L20,10.9912 C19.447,10.9912 19,11.4382 19,11.9922 C19,12.5452 19.447,12.9932 20,12.9932 L24,12.9932 C24.553,12.9932 25,12.5452 25,11.9922 C25,11.4382 24.553,10.9912 24,10.9912" id="Fill-14" fill="#364F6B"></path>
                        <path d="M24,14.9941 L20,14.9941 C19.447,14.9941 19,15.4411 19,15.9951 C19,16.5481 19.447,16.9951 20,16.9951 L24,16.9951 C24.553,16.9951 25,16.5481 25,15.9951 C25,15.4411 24.553,14.9941 24,14.9941" id="Fill-16" fill="#364F6B"></path>
                    </g>
                </g>
            </g>
        </g>
    </g>
</svg>