<?xml version="1.0" encoding="UTF-8"?>
<svg width="32px" height="32px" viewBox="0 0 32 32" version="1.1" xmlns="http://www.w3.org/2000/svg" xmlns:xlink="http://www.w3.org/1999/xlink">
    <!-- Generator: Sketch 64 (93537) - https://sketch.com -->
    <title>book</title>
    <desc>Created with Sketch.</desc>
    <g id="book" stroke="none" stroke-width="1" fill="none" fill-rule="evenodd">
        <g id="1-Line/Communication/book">
            <g id="Page-1">
                <polygon id="Fill-1" points="0 32 32 32 32 0 0 0"></polygon>
                <g id="Group-16" transform="translate(1.000000, 4.000000)" fill="#FFFFFF">
                    <path d="M28,21.3252 C23.877,19.4202 18.989,19.5902 15,21.8362 C11.029,19.5992 6.144,19.4102 2,21.3252 L2,3.5562 C5.859,1.3902 10.695,1.4832 14.472,3.8352 C14.794,4.0372 15.206,4.0372 15.528,3.8352 C19.306,1.4832 24.141,1.3902 28,3.5562 L28,21.3252 Z M29.528,2.1372 C25.131,-0.6038 19.495,-0.7078 15,1.8232 C10.505,-0.7088 4.869,-0.6038 0.472,2.1372 C0.179,2.3192 0,2.6402 0,2.9862 L0,22.9992 C0,23.3632 0.197,23.6982 0.515,23.8742 C0.833,24.0512 1.221,24.0412 1.528,23.8482 C5.46,21.3992 10.54,21.3992 14.472,23.8482 C14.633,23.9492 14.816,24.0002783 15,24.0002783 C15.184,24.0002783 15.367,23.9492 15.528,23.8482 C19.46,21.3992 24.54,21.3992 28.472,23.8482 C28.779,24.0412 29.167,24.0502 29.485,23.8742 C29.803,23.6982 30,23.3632 30,22.9992 L30,2.9862 C30,2.6402 29.821,2.3192 29.528,2.1372 L29.528,2.1372 Z" id="Fill-2"></path>
                    <path d="M11.6666667,6.9893 L6.33333333,6.9893 C5.596,6.9893 5,7.4363 5,7.9893 C5,8.5433 5.596,8.9903 6.33333333,8.9903 L11.6666667,8.9903 C12.404,8.9903 13,8.5433 13,7.9893 C13,7.4363 12.404,6.9893 11.6666667,6.9893" id="Fill-4"></path>
                    <path d="M11.6666667,10.9912 L6.33333333,10.9912 C5.596,10.9912 5,11.4382 5,11.9922 C5,12.5452 5.596,12.9932 6.33333333,12.9932 L11.6666667,12.9932 C12.404,12.9932 13,12.5452 13,11.9922 C13,11.4382 12.404,10.9912 11.6666667,10.9912" id="Fill-6"></path>
                    <path d="M11.6666667,14.9941 L6.33333333,14.9941 C5.596,14.9941 5,15.4411 5,15.9951 C5,16.5481 5.596,16.9951 6.33333333,16.9951 L11.6666667,16.9951 C12.404,16.9951 13,16.5481 13,15.9951 C13,15.4411 12.404,14.9941 11.6666667,14.9941" id="Fill-8"></path>
                    <path d="M17,7.9893 C17,8.5433 17.596,8.9903 18.3333333,8.9903 L23.6666667,8.9903 C24.404,8.9903 25,8.5433 25,7.9893 C25,7.4363 24.404,6.9893 23.6666667,6.9893 L18.3333333,6.9893 C17.596,6.9893 17,7.4363 17,7.9893" id="Fill-10"></path>
                    <path d="M23.6666667,10.9912 L18.3333333,10.9912 C17.596,10.9912 17,11.4382 17,11.9922 C17,12.5452 17.596,12.9932 18.3333333,12.9932 L23.6666667,12.9932 C24.404,12.9932 25,12.5452 25,11.9922 C25,11.4382 24.404,10.9912 23.6666667,10.9912" id="Fill-12"></path>
                    <path d="M23.6666667,14.9941 L18.3333333,14.9941 C17.596,14.9941 17,15.4411 17,15.9951 C17,16.5481 17.596,16.9951 18.3333333,16.9951 L23.6666667,16.9951 C24.404,16.9951 25,16.5481 25,15.9951 C25,15.4411 24.404,14.9941 23.6666667,14.9941" id="Fill-14"></path>
                </g>
            </g>
        </g>
    </g>
</svg>