<?xml version="1.0" encoding="UTF-8"?>
<svg width="32px" height="32px" viewBox="0 0 32 32" version="1.1" xmlns="http://www.w3.org/2000/svg" xmlns:xlink="http://www.w3.org/1999/xlink">
    <!-- Generator: Sketch 64 (93537) - https://sketch.com -->
    <title>businessman</title>
    <desc>Created with Sketch.</desc>
    <g id="businessman" stroke="none" stroke-width="1" fill="none" fill-rule="evenodd">
        <g id="1-Line/Business-&amp;-Finance/businessman">
            <g id="Page-1">
                <polygon id="Fill-1" points="0 32 32 32 32 0 0 0"></polygon>
                <path d="M18.4141,29 L19.7071,27.707 C19.9171,27.497 20.0221,27.205 19.9961,26.91 L19.1311,17.396 C24.4761,18.726 28.5301,23.358 28.9621,29 L18.4141,29 Z M16.0001,28.586 L14.0381,26.624 L14.9081,17.053 C15.7471,16.982 16.2521,16.982 17.0921,17.053 L17.9621,26.624 L16.0001,28.586 Z M3.0381,29 C3.4691,23.358 7.5231,18.726 12.8691,17.396 L12.0041,26.91 C11.9771,27.205 12.0831,27.497 12.2931,27.707 L13.5861,29 L3.0381,29 Z M10.0001,9 C10.0001,5.691 12.6911,3 16.0001,3 C19.3091,3 22.0001,5.691 22.0001,9 C22.0001,12.309 19.3091,15 16.0001,15 C12.6911,15 10.0001,12.309 10.0001,9 L10.0001,9 Z M20.4151,15.665 C22.5731,14.23 24.0001,11.78 24.0001,9 C24.0001,4.589 20.4111,1 16.0001,1 C11.5891,1 8.0001,4.589 8.0001,9 C8.0001,11.78 9.4271,14.231 11.5851,15.665 C5.4621,17.555 1.0001,23.265 1.0001,30 C1.0001,30.552 1.4481,31 2.0001,31 L30.0001,31 C30.5531,31 31.0001,30.552 31.0001,30 C31.0001,23.265 26.5381,17.555 20.4151,15.665 L20.4151,15.665 Z" id="Fill-2" fill="#364F6B"></path>
            </g>
        </g>
    </g>
</svg>