<?xml version="1.0" encoding="UTF-8"?>
<svg width="32px" height="32px" viewBox="0 0 32 32" version="1.1" xmlns="http://www.w3.org/2000/svg" xmlns:xlink="http://www.w3.org/1999/xlink">
    <!-- Generator: Sketch 64 (93537) - https://sketch.com -->
    <title>business performance</title>
    <desc>Created with Sketch.</desc>
    <g id="business-performance" stroke="none" stroke-width="1" fill="none" fill-rule="evenodd">
        <g id="1-Line/Business-&amp;-Finance/business-performance">
            <g id="Page-1">
                <polygon id="Fill-1" points="0 32 32 32 32 0 0 0"></polygon>
                <g id="Group-5" transform="translate(1.000000, 1.000000)" fill="#364F6B">
                    <path d="M22,28 L24,28 L24,10 L22,10 L22,28 Z M14,28 L16,28 L16,18 L14,18 L14,28 Z M6,28 L8,28 L8,22 L6,22 L6,28 Z M29,28 L26,28 L26,9 C26,8.448 25.553,8 25,8 L21,8 C20.447,8 20,8.448 20,9 L20,28 L18,28 L18,17 C18,16.448 17.553,16 17,16 L13,16 C12.447,16 12,16.448 12,17 L12,28 L10,28 L10,21 C10,20.448 9.553,20 9,20 L5,20 C4.447,20 4,20.448 4,21 L4,28 L2,28 L2,1 C2,0.448 1.553,0 1,0 C0.447,0 0,0.448 0,1 L0,29 C0,29.552 0.447,30 1,30 L29,30 C29.553,30 30,29.552 30,29 C30,28.448 29.553,28 29,28 L29,28 Z" id="Fill-2"></path>
                    <path d="M7.707,17.707 L22,3.414 L22,5 C22,5.552 22.447,6 23,6 C23.553,6 24,5.552 24,5 L24,1 C24,0.448 23.546,0 23,0 L19,0 C18.447,0 18,0.448 18,1 C18,1.552 18.447,2 19,2 L20.586,2 L6.293,16.293 C5.902,16.684 5.902,17.316 6.293,17.707 C6.684,18.098 7.316,18.098 7.707,17.707" id="Fill-4"></path>
                </g>
            </g>
        </g>
    </g>
</svg>