<?xml version="1.0" encoding="UTF-8"?>
<svg width="32px" height="32px" viewBox="0 0 32 32" version="1.1" xmlns="http://www.w3.org/2000/svg" xmlns:xlink="http://www.w3.org/1999/xlink">
    <!-- Generator: Sketch 64 (93537) - https://sketch.com -->
    <title>calculator</title>
    <desc>Created with Sketch.</desc>
    <g id="calculator" stroke="none" stroke-width="1" fill="none" fill-rule="evenodd">
        <g id="1-Line/Business-&amp;-Finance/calculator">
            <g id="Page-1">
                <polygon id="Fill-1" points="0 32 32 32 32 0 0 0"></polygon>
                <g id="Group-14" transform="translate(1.000000, 1.000000)" fill="#FFFFFF">
                    <path d="M28,14 L16,14 L16,2 L27,2 C27.552,2 28,2.449 28,3 L28,14 Z M28,27 C28,27.551 27.552,28 27,28 L16,28 L16,16 L28,16 L28,27 Z M14,14 L2,14 L2,3 C2,2.449 2.448,2 3,2 L14,2 L14,14 Z M14,28 L3,28 C2.448,28 2,27.551 2,27 L2,16 L14,16 L14,28 Z M27,0 L3,0 C1.346,0 0,1.346 0,3 L0,27 C0,28.654 1.346,30 3,30 L27,30 C28.654,30 30,28.654 30,27 L30,3 C30,1.346 28.654,0 27,0 L27,0 Z" id="Fill-2"></path>
                    <path d="M24,7 L20,7 C19.447,7 19,7.448 19,8 C19,8.552 19.447,9 20,9 L24,9 C24.553,9 25,8.552 25,8 C25,7.448 24.553,7 24,7" id="Fill-4"></path>
                    <path d="M20,25 L24,25 C24.553,25 25,24.552 25,24 C25,23.448 24.553,23 24,23 L20,23 C19.447,23 19,23.448 19,24 C19,24.552 19.447,25 20,25" id="Fill-6"></path>
                    <path d="M20,21 L24,21 C24.553,21 25,20.552 25,20 C25,19.448 24.553,19 24,19 L20,19 C19.447,19 19,19.448 19,20 C19,20.552 19.447,21 20,21" id="Fill-8"></path>
                    <path d="M6,9 L7,9 L7,10 C7,10.552 7.447,11 8,11 C8.553,11 9,10.552 9,10 L9,9 L10,9 C10.553,9 11,8.552 11,8 C11,7.448 10.553,7 10,7 L9,7 L9,6 C9,5.448 8.553,5 8,5 C7.447,5 7,5.448 7,6 L7,7 L6,7 C5.447,7 5,7.448 5,8 C5,8.552 5.447,9 6,9" id="Fill-10"></path>
                    <path d="M5.293,24.707 C5.684,25.098 6.316,25.098 6.707,24.707 L8,23.414 L9.293,24.707 C9.684,25.098 10.316,25.098 10.707,24.707 C11.098,24.316 11.098,23.684 10.707,23.293 L9.414,22 L10.707,20.707 C11.098,20.316 11.098,19.684 10.707,19.293 C10.316,18.902 9.684,18.902 9.293,19.293 L8,20.586 L6.707,19.293 C6.316,18.902 5.684,18.902 5.293,19.293 C4.902,19.684 4.902,20.316 5.293,20.707 L6.586,22 L5.293,23.293 C4.902,23.684 4.902,24.316 5.293,24.707" id="Fill-12"></path>
                </g>
            </g>
        </g>
    </g>
</svg>