<?xml version="1.0" encoding="UTF-8"?>
<svg width="30px" height="30px" viewBox="0 0 30 30" version="1.1" xmlns="http://www.w3.org/2000/svg" xmlns:xlink="http://www.w3.org/1999/xlink">
    <!-- Generator: Sketch 64 (93537) - https://sketch.com -->
    <title>cardiogram</title>
    <desc>Created with Sketch.</desc>
    <g id="4-Filled-Line" stroke="none" stroke-width="1" fill="none" fill-rule="evenodd">
        <g id="cardiogram" transform="translate(-1.000000, -1.000000)">
            <g id="4-Filled-Line/Medical/cardiogram">
                <rect id="Rectangle" fill="#FFFFFF" x="2" y="2" width="28" height="28"></rect>
                <g id="Page-1" stroke-width="1">
                    <polygon id="Fill-1" points="0 32 32 32 32 0 0 0"></polygon>
                    <polygon id="Fill-2" fill="#1BB5EC" points="21 12 18 17 14 7 11 12 1 12 1 23 31 23 31 12"></polygon>
                    <g id="Group-11" transform="translate(1.000000, 1.000000)" fill="#FFFFFF">
                        <path d="M27,28 L3,28 C2.448,28 2,27.551 2,27 L2,22 L28,22 L28,27 C28,27.551 27.552,28 27,28 L27,28 Z M3,2 L27,2 C27.552,2 28,2.449 28,3 L28,10 L20,10 C19.648,10 19.323,10.184 19.143,10.485 L17.18,13.757 L13.929,5.628 C13.787,5.276 13.459,5.034 13.08,5.003 C12.692,4.968 12.338,5.16 12.143,5.485 L9.434,10 L2,10 L2,3 C2,2.449 2.448,2 3,2 L3,2 Z M2,12 L10,12 C10.352,12 10.677,11.816 10.857,11.515 L12.82,8.243 L16.071,16.372 C16.213,16.724 16.541,16.966 16.92,16.997 C17.283,17.029 17.656,16.85 17.857,16.515 L20.566,12 L28,12 L28,20 L2,20 L2,12 Z M27,0 L3,0 C1.346,0 0,1.346 0,3 L0,27 C0,28.654 1.346,30 3,30 L27,30 C28.654,30 30,28.654 30,27 L30,3 C30,1.346 28.654,0 27,0 L27,0 Z" id="Fill-3"></path>
                        <path d="M24,24 L20,24 C19.447,24 19,24.448 19,25 C19,25.552 19.447,26 20,26 L24,26 C24.553,26 25,25.552 25,25 C25,24.448 24.553,24 24,24" id="Fill-5"></path>
                        <path d="M6,24 C5.447,24 5,24.448 5,25 C5,25.552 5.447,26 6,26 C6.553,26 7,25.552 7,25 C7,24.448 6.553,24 6,24" id="Fill-7"></path>
                        <path d="M10,24 C9.447,24 9,24.448 9,25 C9,25.552 9.447,26 10,26 C10.553,26 11,25.552 11,25 C11,24.448 10.553,24 10,24" id="Fill-9"></path>
                    </g>
                </g>
            </g>
        </g>
    </g>
</svg>