<?xml version="1.0" encoding="UTF-8"?>
<svg width="32px" height="32px" viewBox="0 0 32 32" version="1.1" xmlns="http://www.w3.org/2000/svg" xmlns:xlink="http://www.w3.org/1999/xlink">
    <!-- Generator: Sketch 64 (93537) - https://sketch.com -->
    <title>deal</title>
    <desc>Created with Sketch.</desc>
    <g id="deal" stroke="none" stroke-width="1" fill="none" fill-rule="evenodd">
        <g id="4-Filled-Line/Business-&amp;-Finance/deal">
            <rect id="Rectangle" fill="#FFFFFF" fill-rule="evenodd" x="4" y="1" width="24" height="28"></rect>
            <g id="Page-1" stroke-width="1" fill-rule="evenodd">
                <polygon id="Fill-1" points="0 32 32 32 32 0 0 0"></polygon>
                <g id="Group-12" transform="translate(9.000000, 6.000000)">
                    <path d="M10,10.9995 C7.243,10.9995 5,13.2425 5,15.9995 C5,18.7565 7.243,20.9995 10,20.9995 C12.757,20.9995 15,18.7565 15,15.9995 C15,13.2425 12.757,10.9995 10,10.9995" id="Fill-2" fill="#1BB5EC"></path>
                    <path d="M10,18.999 C8.346,18.999 7,17.654 7,15.999 C7,14.345 8.346,13 10,13 C11.654,13 13,14.345 13,15.999 C13,17.654 11.654,18.999 10,18.999 L10,18.999 Z M11,22.13 C9.958,21.436 9.893,21.535 9,22.13 L9,20.898 C9.323,20.964 9.658,20.999 10,20.999 C10.342,20.999 10.677,20.964 11,20.898 L11,22.13 Z M10,11 C7.243,11 5,13.243 5,15.999 C5,17.628 5.795,19.064 7.004,19.977 C7.004,19.985 7,19.991 7,19.999 L7,23.999 C7,24.794 7.886,25.273 8.555,24.831 L10,23.867 L11.445,24.831 C12.109,25.273 13,24.796 13,23.999 L13,19.999 C13,19.991 12.996,19.985 12.996,19.977 C14.205,19.064 15,17.628 15,15.999 C15,13.243 12.757,11 10,11 L10,11 Z" id="Fill-6" fill="#FFFFFF"></path>
                    <path d="M1,2 L13,2 C13.552,2 14,1.552 14,1 C14,0.448 13.552,0 13,0 L1,0 C0.448,0 0,0.448 0,1 C0,1.552 0.448,2 1,2" id="Fill-8" fill="#FFFFFF"></path>
                    <path d="M1,7 L13,7 C13.552,7 14,6.552 14,6 C14,5.448 13.552,5 13,5 L1,5 C0.448,5 0,5.448 0,6 C0,6.552 0.448,7 1,7" id="Fill-10" fill="#FFFFFF"></path>
                </g>
            </g>
            <polyline id="Path-2" stroke="#364F6B" stroke-width="2" stroke-linecap="round" points="13 28 5 28 5 2 27 2 27 28 25 28"></polyline>
        </g>
    </g>
</svg>