<?xml version="1.0" encoding="UTF-8"?>
<svg width="32px" height="32px" viewBox="0 0 32 32" version="1.1" xmlns="http://www.w3.org/2000/svg" xmlns:xlink="http://www.w3.org/1999/xlink">
    <!-- Generator: Sketch 64 (93537) - https://sketch.com -->
    <title>domain</title>
    <desc>Created with Sketch.</desc>
    <g id="domain" stroke="none" stroke-width="1" fill="none" fill-rule="evenodd">
        <g id="4-Filled-Line/SEO/domain">
            <circle id="Oval" fill="#FFFFFF" cx="16" cy="16" r="15"></circle>
            <g id="Page-1" stroke-width="1">
                <polygon id="Fill-1" points="0 32 32 32 32 0 0 0"></polygon>
                <g id="Group-14" transform="translate(2.000000, 1.000000)">
                    <path d="M25,15 C25,21.075 20.075,26 14,26 C7.925,26 3,21.075 3,15 C3,8.925 7.925,4 14,4 C20.075,4 25,8.925 25,15" id="Fill-2" fill="#1BB5EC"></path>
                    <path d="M8.2427,12.0298 C7.7097,11.8948 7.1647,12.2218 7.0297,12.7578 L6.5777,14.5648 L5.8317,13.4458 C5.4607,12.8888 4.5387,12.8888 4.1677,13.4458 L3.4217,14.5648 L2.9707,12.7578 C2.8357,12.2218 2.2927,11.8948 1.7577,12.0298 C1.2217,12.1638 0.8957,12.7068 1.0297,13.2428 L2.0297,17.2428 C2.1257,17.6268 2.4397,17.9178 2.8287,17.9858 C3.2187,18.0508 3.6117,17.8838 3.8317,17.5548 L4.9997,15.8028 L6.1677,17.5548 C6.3827,17.8768 6.7707,18.0538 7.1707,17.9858 C7.5607,17.9178 7.8737,17.6268 7.9707,17.2428 L8.9707,13.2428 C9.1037,12.7068 8.7787,12.1638 8.2427,12.0298" id="Fill-4" fill="#FFFFFF"></path>
                    <path d="M16.0303,12.7573 L15.5783,14.5643 L14.8323,13.4453 C14.4613,12.8883 13.5393,12.8883 13.1683,13.4453 L12.4223,14.5643 L11.9703,12.7573 C11.8363,12.2213 11.2933,11.8953 10.7573,12.0293 C10.2213,12.1633 9.8963,12.7063 10.0303,13.2423 L11.0303,17.2423 C11.1263,17.6263 11.4393,17.9183 11.8293,17.9853 C12.2173,18.0513 12.6123,17.8833 12.8323,17.5543 L14.0003,15.8023 L15.1683,17.5543 C15.3833,17.8773 15.7693,18.0533 16.1713,17.9853 C16.5603,17.9183 16.8743,17.6263 16.9693,17.2423 L17.9693,13.2423 C18.1043,12.7063 17.7783,12.1633 17.2423,12.0293 C16.7063,11.8933 16.1643,12.2213 16.0303,12.7573" id="Fill-6" fill="#FFFFFF"></path>
                    <path d="M26.2422,12.0298 C25.7062,11.8938 25.1632,12.2218 25.0302,12.7578 L24.5782,14.5648 L23.8322,13.4458 C23.4612,12.8888 22.5392,12.8888 22.1682,13.4458 L21.4222,14.5648 L20.9702,12.7578 C20.8362,12.2218 20.2922,11.8948 19.7582,12.0298 C19.2212,12.1638 18.8952,12.7068 19.0302,13.2428 L20.0302,17.2428 C20.1262,17.6268 20.4392,17.9178 20.8292,17.9858 C21.2232,18.0518 21.6122,17.8838 21.8322,17.5548 L23.0002,15.8028 L24.1682,17.5548 C24.3832,17.8768 24.7692,18.0528 25.1712,17.9858 C25.5602,17.9178 25.8742,17.6268 25.9702,17.2428 L26.9702,13.2428 C27.1042,12.7068 26.7782,12.1638 26.2422,12.0298" id="Fill-8" fill="#FFFFFF"></path>
                    <path d="M0.918,9.9033 C1.412,10.1383 2.012,9.9313 2.251,9.4293 C3.721,6.3333 6.354,3.9893 9.474,2.8223 C8.425,4.3103 7.576,6.3333 7.024,8.7803 C6.902,9.3193 7.241,9.8543 7.78,9.9753 C8.314,10.0963 8.853,9.7613 8.975,9.2193 C9.948,4.9013 11.968,2.0003 14,2.0003 C16.032,2.0003 18.052,4.9013 19.024,9.2193 C19.146,9.7583 19.685,10.0953 20.22,9.9753 C20.759,9.8533 21.097,9.3183 20.976,8.7793 C20.425,6.3333 19.575,4.3113 18.527,2.8223 C21.647,3.9903 24.279,6.3333 25.749,9.4283 C25.985,9.9273 26.584,10.1403 27.081,9.9033 C27.58,9.6653 27.793,9.0693 27.556,8.5703 C25.082,3.3643 19.761,0.0003 14,0.0003 C8.238,0.0003 2.918,3.3643 0.444,8.5703 C0.207,9.0703 0.419,9.6663 0.918,9.9033" id="Fill-10" fill="#FFFFFF"></path>
                    <path d="M27.0811,20.0972 C26.5841,19.8582 25.9851,20.0722 25.7491,20.5712 C24.2791,23.6662 21.6461,26.0102 18.5271,27.1772 C19.5751,25.6892 20.4251,23.6662 20.9761,21.2202 C21.0971,20.6812 20.7591,20.1462 20.2201,20.0252 C19.6841,19.9042 19.1451,20.2412 19.0241,20.7812 C18.0521,25.0982 16.0321,28.0002 14.0001,28.0002 C11.9671,28.0002 9.9481,25.0982 8.9761,20.7802 C8.8541,20.2422 8.3151,19.9022 7.7801,20.0242 C7.2421,20.1462 6.9031,20.6812 7.0241,21.2202 C7.5761,23.6662 8.4251,25.6892 9.4741,27.1782 C6.3531,26.0102 3.7211,23.6672 2.2501,20.5712 C2.0131,20.0712 1.4161,19.8602 0.9181,20.0972 C0.4191,20.3332 0.2071,20.9302 0.4441,21.4292 C2.9171,26.6362 8.2381,30.0002 14.0001,30.0002 C19.7611,30.0002 25.0821,26.6362 27.5561,21.4302 C27.7931,20.9302 27.5801,20.3342 27.0811,20.0972" id="Fill-12" fill="#FFFFFF"></path>
                </g>
            </g>
        </g>
    </g>
</svg>