<?xml version="1.0" encoding="UTF-8"?>
<svg width="30px" height="24px" viewBox="0 0 30 24" version="1.1" xmlns="http://www.w3.org/2000/svg" xmlns:xlink="http://www.w3.org/1999/xlink">
    <!-- Generator: Sketch 64 (93537) - https://sketch.com -->
    <title>fake traffic</title>
    <desc>Created with Sketch.</desc>
    <g id="4-Filled-Line" stroke="none" stroke-width="1" fill="none" fill-rule="evenodd">
        <g id="fake-traffic" transform="translate(-1.000000, -5.000000)">
            <g id="4-Filled-Line/SEO/fake-traffic">
                <g id="Page-1">
                    <polygon id="Fill-1" points="0 32 32 32 32 0 0 0"></polygon>
                    <g id="Group-8" transform="translate(1.000000, 5.000000)">
                        <path d="M27,4 C26.585,4 26.211,3.74 26.068,3.354 C25.872,2.827 25.286,2.569 24.778,2.764 L20.519,4.364 C19.994,4.56 19.73,5.155 19.944,5.678 C20.354,6.681 18.919,7.535 18.193,6.59 C17.858,6.156 17.238,6.071 16.801,6.4 L12,10 C11.562,10.329 11.47,10.95 11.794,11.392 C11.931,11.578 12,11.782 12,12 C12,12.551 11.551,13 11,13 C10.449,13 10,12.551 10,12 C10,11.809 10.051,11.627 10.152,11.462 C10.439,10.995 10.295,10.383 9.83,10.092 L5.23,7.212 C4.766,6.923 4.156,7.059 3.859,7.519 C3.668,7.816 3.339,8 3,8 C2.447,8 2,8.448 2,9 L2,21 C2,21.552 2.447,22 3,22 L27,22 C27.553,22 28,21.552 28,21 L28,5 C28,4.448 27.553,4 27,4" id="Fill-2" fill="#1BB5EC"></path>
                        <path d="M27,4 C26.448,4 26,3.551 26,3 C26,2.449 26.448,2 27,2 C27.552,2 28,2.449 28,3 C28,3.551 27.552,4 27,4 M19,7 C18.448,7 18,6.551 18,6 C18,5.449 18.448,5 19,5 C19.552,5 20,5.449 20,6 C20,6.551 19.552,7 19,7 M11,13 C10.448,13 10,12.551 10,12 C10,11.449 10.448,11 11,11 C11.552,11 12,11.449 12,12 C12,12.551 11.552,13 11,13 M3,6 C3.552,6 4,6.449 4,7 C4,7.551 3.552,8 3,8 C2.448,8 2,7.551 2,7 C2,6.449 2.448,6 3,6 M30,3 C30,1.346 28.654,0 27,0 C25.346,0 24,1.346 24,3 C24,3.019 24.005,3.036 24.006,3.055 L21.282,4.076 C20.731,3.424 19.919,3 19,3 C17.346,3 16,4.346 16,6 C16,6.312 16.062,6.605 16.149,6.888 L12.66,9.504 C12.185,9.187 11.614,9 11,9 C10.296,9 9.657,9.254 9.145,9.661 L5.925,7.648 C5.972,7.439 6,7.223 6,7 C6,5.346 4.654,4 3,4 C1.346,4 0,5.346 0,7 C0,8.302 0.839,9.401 2,9.815 L2,20 L1,20 C0.447,20 0,20.448 0,21 C0,21.552 0.447,22 1,22 L15,22 C15.553,22 16,21.552 16,21 C16,20.448 15.553,20 15,20 L4,20 L4,9.816 C4.313,9.704 4.6,9.542 4.855,9.339 L8.075,11.352 C8.028,11.561 8,11.777 8,12 C8,13.654 9.346,15 11,15 C12.654,15 14,13.654 14,12 C14,11.688 13.938,11.394 13.851,11.112 L17.34,8.496 C17.815,8.813 18.386,9 19,9 C20.654,9 22,7.654 22,6 C22,5.981 21.995,5.964 21.994,5.945 L24.718,4.924 C25.057,5.326 25.495,5.636 26,5.815 L26,15 C26,15.552 26.447,16 27,16 C27.553,16 28,15.552 28,15 L28,5.816 C29.161,5.401 30,4.302 30,3" id="Fill-4" fill="#FFFFFF"></path>
                        <path d="M25.707,17.293 C25.316,16.902 24.684,16.902 24.293,17.293 L22.5,19.086 L20.707,17.293 C20.316,16.902 19.684,16.902 19.293,17.293 C18.902,17.684 18.902,18.316 19.293,18.707 L21.086,20.5 L19.293,22.293 C18.902,22.684 18.902,23.316 19.293,23.707 C19.684,24.098 20.316,24.098 20.707,23.707 L22.5,21.914 L24.293,23.707 C24.684,24.098 25.316,24.098 25.707,23.707 C26.098,23.316 26.098,22.684 25.707,22.293 L23.914,20.5 L25.707,18.707 C26.098,18.316 26.098,17.684 25.707,17.293" id="Fill-6" fill="#FFFFFF"></path>
                    </g>
                </g>
            </g>
        </g>
    </g>
</svg>