<?xml version="1.0" encoding="UTF-8"?>
<svg width="32px" height="32px" viewBox="0 0 32 32" version="1.1" xmlns="http://www.w3.org/2000/svg" xmlns:xlink="http://www.w3.org/1999/xlink">
    <!-- Generator: Sketch 64 (93537) - https://sketch.com -->
    <title>id card</title>
    <desc>Created with Sketch.</desc>
    <g id="id-card" stroke="none" stroke-width="1" fill="none" fill-rule="evenodd">
        <g id="1-Line/Business-&amp;-Finance/id-card">
            <g id="Page-1">
                <polygon id="Fill-1" points="0 32 32 32 32 0 0 0"></polygon>
                <g id="Group-10" transform="translate(1.000000, 5.000000)" fill="#FFFFFF">
                    <path d="M2,20 L2,4 L28,4 L28.001,20 L2,20 Z M28,2 L18,2 C18.553,2 19,1.552 19,1 C19,0.448 18.553,0 18,0 L12,0 C11.447,0 11,0.448 11,1 C11,1.552 11.447,2 12,2 L2,2 C0.897,2 0,2.897 0,4 L0,20 C0,21.103 0.897,22 2,22 L28,22 C29.103,22 30,21.103 30,20 L30,4 C30,2.897 29.103,2 28,2 L28,2 Z" id="Fill-2"></path>
                    <path d="M25,8 L17,8 C16.447,8 16,8.448 16,9 C16,9.552 16.447,10 17,10 L25,10 C25.553,10 26,9.552 26,9 C26,8.448 25.553,8 25,8" id="Fill-4"></path>
                    <path d="M25,14 L17,14 C16.447,14 16,14.448 16,15 C16,15.552 16.447,16 17,16 L25,16 C25.553,16 26,15.552 26,15 C26,14.448 25.553,14 25,14" id="Fill-6"></path>
                    <path d="M6.1709,15 C6.5839,13.836 7.6959,13 8.9999,13 C10.3039,13 11.4159,13.836 11.8289,15 L6.1709,15 Z M8.9999,9 C9.5519,9 9.9999,9.449 9.9999,10 C9.9999,10.551 9.5519,11 8.9999,11 C8.4479,11 7.9999,10.551 7.9999,10 C7.9999,9.449 8.4479,9 8.9999,9 L8.9999,9 Z M11.4809,11.685 C11.8079,11.204 11.9999,10.625 11.9999,10 C11.9999,8.346 10.6539,7 8.9999,7 C7.3459,7 5.9999,8.346 5.9999,10 C5.9999,10.625 6.1919,11.204 6.5199,11.685 C5.0229,12.549 3.9999,14.15 3.9999,16 C3.9999,16.552 4.4469,17 4.9999,17 L12.9999,17 C13.5529,17 13.9999,16.552 13.9999,16 C13.9999,14.15 12.9779,12.549 11.4809,11.685 L11.4809,11.685 Z" id="Fill-8"></path>
                </g>
            </g>
        </g>
    </g>
</svg>