<?xml version="1.0" encoding="UTF-8"?>
<svg width="30px" height="28px" viewBox="0 0 30 28" version="1.1" xmlns="http://www.w3.org/2000/svg" xmlns:xlink="http://www.w3.org/1999/xlink">
    <!-- Generator: Sketch 64 (93537) - https://sketch.com -->
    <title>meta tag</title>
    <desc>Created with Sketch.</desc>
    <g id="4-Filled-Line" stroke="none" stroke-width="1" fill="none" fill-rule="evenodd">
        <g id="meta-tag" transform="translate(-1.000000, -2.000000)">
            <g id="4-Filled-Line/SEO/meta-tag">
                <rect id="Rectangle" fill="#FFFFFF" x="2" y="9" width="28" height="20"></rect>
                <g id="Page-1" stroke-width="1">
                    <polygon id="Fill-1" points="0 32 32 32 32 0 0 0"></polygon>
                    <g id="Group-12" transform="translate(1.000000, 2.000000)">
                        <path d="M27,0 L3,0 C1.346,0 0,1.346 0,3 L0,7 C0,7.552 0.447,8 1,8 L29,8 C29.553,8 30,7.552 30,7 L30,3 C30,1.346 28.654,0 27,0" id="Fill-2" fill="#1BB5EC"></path>
                        <path d="M7.293,21.707 C7.684,22.098 8.316,22.098 8.707,21.707 C9.098,21.316 9.098,20.684 8.707,20.293 L5.414,17 L8.707,13.707 C9.098,13.316 9.098,12.684 8.707,12.293 C8.316,11.902 7.684,11.902 7.293,12.293 L3.293,16.293 C2.902,16.684 2.902,17.316 3.293,17.707 L7.293,21.707 Z" id="Fill-4" fill="#364F6B"></path>
                        <path d="M21.293,21.707 C21.684,22.098 22.316,22.098 22.707,21.707 L26.707,17.707 C27.098,17.316 27.098,16.684 26.707,16.293 L22.707,12.293 C22.316,11.902 21.684,11.902 21.293,12.293 C20.902,12.684 20.902,13.316 21.293,13.707 L24.586,17 L21.293,20.293 C20.902,20.684 20.902,21.316 21.293,21.707" id="Fill-6" fill="#364F6B"></path>
                        <path d="M28,25 C28,25.551 27.551,26 27,26 L3,26 C2.449,26 2,25.551 2,25 L2,8 L28,8 L28,25 Z M2,3 C2,2.449 2.449,2 3,2 L27,2 C27.551,2 28,2.449 28,3 L28,6 L2,6 L2,3 Z M27,0 L3,0 C1.346,0 0,1.346 0,3 L0,25 C0,26.654 1.346,28 3,28 L27,28 C28.654,28 30,26.654 30,25 L30,3 C30,1.346 28.654,0 27,0 L27,0 Z" id="Fill-8" fill="#364F6B"></path>
                        <path d="M14.2808,16 L16.2188,16 L15.7188,18 L13.7808,18 L14.2808,16 Z M10.9998,20 L11.2188,20 L11.0298,20.757 C10.8958,21.293 11.2218,21.836 11.7578,21.97 C12.2848,22.103 12.8348,21.784 12.9698,21.243 L13.2808,20 L15.2188,20 L15.0298,20.757 C14.8958,21.293 15.2218,21.836 15.7578,21.97 C16.2848,22.103 16.8348,21.784 16.9698,21.243 L17.2808,20 L17.9998,20 C18.5518,20 18.9998,19.552 18.9998,19 C18.9998,18.448 18.5518,18 17.9998,18 L17.7808,18 L18.2808,16 L18.9998,16 C19.5518,16 19.9998,15.552 19.9998,15 C19.9998,14.448 19.5518,14 18.9998,14 L18.7808,14 L18.9698,13.243 C19.1038,12.707 18.7788,12.164 18.2428,12.03 C17.7108,11.895 17.1638,12.222 17.0298,12.757 L16.7188,14 L14.7808,14 L14.9698,13.243 C15.1038,12.707 14.7788,12.164 14.2428,12.03 C13.7078,11.895 13.1648,12.222 13.0298,12.757 L12.7188,14 L11.9998,14 C11.4478,14 10.9998,14.448 10.9998,15 C10.9998,15.552 11.4478,16 11.9998,16 L12.2188,16 L11.7188,18 L10.9998,18 C10.4478,18 9.9998,18.448 9.9998,19 C9.9998,19.552 10.4478,20 10.9998,20 L10.9998,20 Z" id="Fill-10" fill="#364F6B"></path>
                    </g>
                </g>
            </g>
        </g>
    </g>
</svg>