<?xml version="1.0" encoding="UTF-8"?>
<svg width="32px" height="32px" viewBox="0 0 32 32" version="1.1" xmlns="http://www.w3.org/2000/svg" xmlns:xlink="http://www.w3.org/1999/xlink">
    <!-- Generator: Sketch 64 (93537) - https://sketch.com -->
    <title>microscope</title>
    <desc>Created with Sketch.</desc>
    <g id="microscope" stroke="none" stroke-width="1" fill="none" fill-rule="evenodd">
        <g id="1-Line/Medical/microscope">
            <g id="Page-1">
                <polygon id="Fill-1" points="0 32 32 32 32 0 0 0"></polygon>
                <path d="M9,29 L10.5,27 L23.5,27 L25,29 L9,29 Z M13.864,11.586 L12.414,10.136 L19.136,3.414 L20.586,4.864 L13.864,11.586 Z M27.8,29.4 L24.8,25.4 C24.611,25.148 24.315,25 24,25 L22.644,25 C24.688,23.349 26,20.826 26,18 C26,13.739 23.02,10.168 19.037,9.241 L22.707,5.571 C23.098,5.18 23.098,4.547 22.707,4.157 L19.843,1.293 C19.453,0.902 18.82,0.902 18.429,1.293 L10.293,9.429 C9.902,9.82 9.902,10.453 10.293,10.843 L13.157,13.707 C13.547,14.098 14.18,14.098 14.571,13.707 L17.265,11.013 C21.001,11.154 24,14.229 24,18 C24,21.86 20.86,25 17,25 C13.48,25 10.567,22.387 10.08,19 L13,19 C13.552,19 14,18.552 14,18 C14,17.448 13.552,17 13,17 L5,17 C4.448,17 4,17.448 4,18 C4,18.552 4.448,19 5,19 L8.059,19 C8.328,21.417 9.557,23.546 11.356,25 L10,25 C9.685,25 9.389,25.148 9.2,25.4 L6.2,29.4 C5.973,29.703 5.936,30.108 6.105,30.447 C6.275,30.786 6.621,31 7,31 L27,31 C27.379,31 27.725,30.786 27.895,30.447 C28.064,30.108 28.027,29.703 27.8,29.4 L27.8,29.4 Z" id="Fill-2" fill="#364F6B"></path>
            </g>
        </g>
    </g>
</svg>