<?xml version="1.0" encoding="UTF-8" standalone="no"?>
<!-- Created with Inkscape (http://www.inkscape.org/) -->

<svg
   xmlns:dc="http://purl.org/dc/elements/1.1/"
   xmlns:cc="http://creativecommons.org/ns#"
   xmlns:rdf="http://www.w3.org/1999/02/22-rdf-syntax-ns#"
   xmlns:svg="http://www.w3.org/2000/svg"
   xmlns="http://www.w3.org/2000/svg"
   xmlns:sodipodi="http://sodipodi.sourceforge.net/DTD/sodipodi-0.dtd"
   xmlns:inkscape="http://www.inkscape.org/namespaces/inkscape"
   version="1.1"
   id="svg2"
   xml:space="preserve"
   width="312.41333"
   height="137.13333"
   viewBox="0 0 312.41333 137.13333"
   sodipodi:docname="logo-bhsad.svg"
   inkscape:version="0.92.3 (2405546, 2018-03-11)"><metadata
     id="metadata8"><rdf:RDF><cc:Work
         rdf:about=""><dc:format>image/svg+xml</dc:format><dc:type
           rdf:resource="http://purl.org/dc/dcmitype/StillImage" /><dc:title></dc:title></cc:Work></rdf:RDF></metadata><defs
     id="defs6" /><sodipodi:namedview
     pagecolor="#ffffff"
     bordercolor="#666666"
     borderopacity="1"
     objecttolerance="10"
     gridtolerance="10"
     guidetolerance="10"
     inkscape:pageopacity="0"
     inkscape:pageshadow="2"
     inkscape:window-width="1507"
     inkscape:window-height="800"
     id="namedview4"
     showgrid="false"
     inkscape:zoom="2.5202365"
     inkscape:cx="133.78658"
     inkscape:cy="68.566666"
     inkscape:window-x="0"
     inkscape:window-y="27"
     inkscape:window-maximized="0"
     inkscape:current-layer="g10" /><g
     id="g10"
     inkscape:groupmode="layer"
     inkscape:label="ink_ext_XXXXXX"
     transform="matrix(1.3333333,0,0,-1.3333333,0,137.13333)"><g
       id="g12"
       transform="scale(0.1)"><path
         d="m 2033.31,44.8164 c -18.87,0 -27.91,8.6484 -27.91,19.2656 0,8.2539 3.14,12.1875 5.11,13.7578 5.5,-0.3906 11.79,-0.7851 17.69,-0.7851 h 27.13 c 10.22,0 14.54,-3.5391 14.54,-10.2227 0,-12.1875 -14.15,-22.0156 -36.56,-22.0156 z m -293.67,29.8789 c 58.58,0 91.21,27.9137 91.21,64.8677 0,34.597 -21.63,45.21 -69.2,66.835 -9.43,4.325 -11.4,7.864 -11.4,12.973 0,4.324 3.93,9.043 17.3,9.043 16.91,0 36.96,-2.754 51.9,-7.473 v 50.325 c 0,0 -0.79,0.39 -2.36,0.785 -9.44,2.359 -16.91,7.469 -16.91,15.726 0,13.368 20.84,15.727 53.08,15.727 h 70.76 v 51.105 h -87.28 c -59.75,0 -97.5,-16.906 -97.5,-53.074 0,-10.613 3.54,-18.082 9.05,-24.765 -36.96,-4.325 -69.98,-22.016 -69.98,-61.723 0,-34.988 23.98,-54.254 61.33,-66.047 13.76,-4.324 19.26,-8.648 19.26,-14.152 0,-7.078 -7.86,-10.618 -23.19,-10.618 -27.13,0 -54.65,10.223 -54.65,10.223 V 84.5234 c 0,0 22.8,-9.8281 58.58,-9.8281 z m 389.21,5.1133 c 0,34.5934 -17.3,50.3204 -63.69,50.3204 h -34.21 c -11.4,0 -17.69,1.965 -17.69,9.043 0,5.894 3.54,7.859 3.93,8.254 v 0 c 5.51,-0.395 11.4,-0.785 17.3,-0.785 52.29,0 88.85,25.554 88.85,64.472 0,5.114 -0.79,9.828 -1.96,14.547 h 29.09 V 79.8086 h 74.69 V 208.363 c 0,0 8.65,7.864 22.02,7.864 14.15,0 21.23,-8.649 21.23,-22.411 V 79.8086 h 74.7 V 184.383 c 0,56.609 -12.98,91.992 -63.3,91.992 -23.59,0 -42.85,-9.434 -60.15,-22.016 v 22.016 l -144.28,-5.504 c -11.8,4.324 -26.34,6.684 -42.46,6.684 -59.76,0 -90.82,-30.274 -90.82,-66.047 0,-25.16 13.37,-44.031 37.35,-54.645 -13.36,-5.113 -27.52,-17.3 -27.52,-38.136 0,-12.973 6.29,-22.4106 16.51,-28.6997 C 1959.4,84.918 1947.22,72.7305 1947.22,53.8594 1947.22,18.0781 1984.56,0 2027.81,0 c 67.62,0 101.04,38.1328 101.04,79.8086 z M 496.141,125.41 c -9.043,0 -14.942,5.899 -14.942,17.692 0,10.222 6.688,18.086 18.481,18.086 h 15.722 v -25.165 c 0,0 -6.289,-10.613 -19.261,-10.613 z m 539.779,5.504 c -11.4,0 -19.26,6.684 -19.26,18.871 0,8.254 4.71,18.082 13.76,25.555 1.18,-1.18 2.75,-2.36 4.32,-3.539 l 33.02,-24.77 c -9.82,-9.433 -20.05,-16.117 -31.84,-16.117 z m 318.44,3.934 c -14.94,0 -23.59,15.722 -23.59,40.097 0,23.981 7.87,46.785 25.16,46.785 9.83,0 16.91,-5.503 16.91,-5.503 v -74.7 c 0,0 -8.26,-6.679 -18.48,-6.679 z M 113.617,126.195 c -15.3318,0 -24.3748,13.368 -24.3748,48.75 0,34.989 9.043,50.715 24.3748,50.715 13.367,0 22.801,-15.726 22.801,-50.715 0,-35.382 -9.828,-48.75 -22.801,-48.75 z m 1435.743,65.262 c 0.79,21.231 8.65,36.563 22.01,36.563 13.76,0 21.23,-14.942 22.41,-36.563 z m 483.56,0 c -12.97,0 -20.05,8.648 -20.05,20.836 0,11.402 7.08,19.656 20.05,19.656 12.19,0 19.66,-7.469 19.66,-19.656 0,-12.188 -7.87,-20.836 -19.66,-20.836 z M 1846.96,79.8086 h 74.7 V 272.051 h -75.87 z M 113.617,75.0898 c 58.578,0 95.531,36.5622 95.531,99.0702 0,61.723 -36.953,102.61 -95.531,102.61 -60.5428,0 -97.1053,-40.493 -97.1053,-102.215 0,-62.512 36.5625,-99.4652 97.1053,-99.4652 z m 1211.653,0 c 29.49,0 46,14.5469 55.04,26.7302 3.14,-19.6559 16.51,-26.7302 35.77,-26.7302 25.95,0 55.83,4.7188 55.83,4.7188 V 125.41 h -7.86 c -11.8,0.395 -16.51,2.754 -16.51,12.582 v 182.414 c 0,27.129 -12.58,38.137 -41.68,38.137 -27.12,0 -57,-5.113 -57,-5.113 v -45.211 h 1.57 c 15.33,0 22.41,-0.785 22.41,-12.973 v -31.844 c -7.47,5.504 -18.87,13.368 -38.13,13.368 -48.36,0 -78.24,-47.965 -78.24,-106.149 0,-62.508 25.95,-95.5312 68.8,-95.5312 z M 872.766,224.09 v 47.961 h -40.098 v 42.461 l -74.695,-5.504 v -36.957 c -3.539,0 -33.028,-0.395 -53.075,-28.305 0,25.555 -17.691,33.414 -41.281,33.414 -27.519,0 -57.004,-5.109 -57.004,-5.109 V 226.84 h 5.504 c 13.762,-0.395 18.082,-1.965 18.082,-12.973 V 79.8086 h 74.699 V 195.391 c 9.434,16.117 33.809,26.73 53.075,26.73 v -82.558 c 0,-43.2466 20.441,-64.4732 71.156,-64.4732 29.094,0 42.851,4.7188 42.851,4.7188 V 130.52 c 0,0 -5.894,-0.786 -12.578,-0.786 -20.445,0 -26.734,7.864 -26.734,20.446 v 73.91 z M 559.438,77.0547 c 24.375,0 50.32,4.7187 50.32,4.7187 v 45.6016 h -1.965 c -16.117,0 -21.625,0.789 -21.625,12.582 v 57.789 c 0,60.543 -28.699,80.988 -89.633,80.988 -39.316,0 -69.195,-8.648 -69.195,-8.648 v -51.5 c 0,0 24.769,8.648 50.715,8.648 26.34,0 37.347,-11.402 37.347,-23.589 v -4.719 h -25.16 c -51.105,0 -78.625,-25.16 -78.625,-64.867 0,-37.3481 24.766,-57.0043 58.184,-57.0043 27.125,0 42.851,11.793 51.105,20.4414 3.934,-13.3633 16.907,-20.4414 38.532,-20.4414 z m 1019.012,0 c 45.61,0 73.52,10.6133 73.52,10.6133 v 49.535 c 0,0 -26.34,-7.074 -53.08,-7.074 -25.55,0 -42.06,5.504 -49.14,24.766 h 108.51 c 0,0 1.96,7.472 1.96,30.273 0,39.312 -18.08,93.566 -88.06,93.566 -61.33,0 -96.32,-43.636 -96.32,-104.968 0,-61.328 40.1,-96.7113 102.61,-96.7113 z M 1025.7,277.16 c 0,12.188 7.86,21.625 21.62,21.625 11.4,0 20.84,-8.258 20.84,-21.625 0,-14.937 -11.4,-25.551 -23.98,-34.988 -13.76,12.582 -18.48,22.016 -18.48,34.988 z m 142.31,-206.0037 33.42,51.1097 -49.53,36.957 60.54,74.695 h -67.62 l -36.56,-41.676 -23.59,17.692 c 28.7,22.41 46.78,42.066 46.78,71.16 0,38.133 -31.45,69.586 -84.92,69.586 -48.745,0 -83.733,-33.418 -83.733,-76.664 0,-24.766 9.043,-44.032 27.519,-63.688 -30.273,-20.051 -44.031,-42.851 -44.031,-73.515 0,-37.7427 35.383,-61.7232 80.985,-61.7232 31.85,0 58.58,11.0079 85.31,37.7382 z M 309.398,358.543 c -50.32,0 -74.3,-23.59 -74.3,-64.082 v -22.41 H 214.262 V 224.09 h 20.836 V 25.5508 h 74.695 V 224.09 h 34.598 v 47.961 h -34.993 v 11.793 c 0,12.187 6.684,18.48 28.7,18.48 h 9.437 v 51.895 c 0,0 -13.367,4.324 -38.137,4.324 z m 132.098,18.477 c -18.871,0 -27.914,8.648 -27.914,19.261 0,8.258 3.145,12.188 5.109,13.762 5.504,-0.395 11.797,-0.785 17.692,-0.785 h 27.129 c 10.218,0 14.543,-3.539 14.543,-10.223 0,-12.187 -14.153,-22.015 -36.559,-22.015 z m 807.894,28.304 c 58.58,0 91.21,27.914 91.21,64.867 0,34.598 -21.62,45.211 -69.19,66.836 -9.44,4.325 -11.4,7.864 -11.4,12.973 0,4.324 3.93,9.043 17.3,9.043 16.9,0 36.95,-2.754 51.89,-7.469 v 50.321 c 0,0 -19.26,6.289 -53.47,6.289 -43.24,0 -87.67,-16.512 -87.67,-62.508 0,-34.988 23.99,-54.254 61.33,-66.047 13.76,-4.324 19.27,-8.649 19.27,-14.152 0,-7.079 -7.86,-10.618 -23.2,-10.618 -27.12,0 -54.64,10.223 -54.64,10.223 v -49.93 c 0,0 22.8,-9.828 58.57,-9.828 z m -712.363,6.684 c 0,34.597 -17.297,50.32 -63.687,50.32 h -34.203 c -11.403,0 -17.692,1.969 -17.692,9.043 0,4.719 2.36,7.078 3.535,7.863 5.508,-0.39 11.403,-0.785 17.301,-0.785 52.285,0 88.848,25.555 88.848,64.477 0,16.512 -6.684,31.449 -18.867,43.242 l 18.476,43.246 -47.965,15.727 -13.367,-38.528 c -8.648,1.965 -18.082,2.75 -28.699,2.75 -59.758,0 -90.812,-30.269 -90.812,-66.047 0,-25.16 13.367,-43.636 36.953,-54.644 -12.578,-4.719 -26.735,-16.906 -26.735,-37.742 0,-12.973 6.293,-22.41 16.516,-28.7 -9.043,-5.113 -21.231,-17.296 -21.231,-36.167 0,-35.778 37.348,-53.86 80.59,-53.86 67.621,0 101.039,38.133 101.039,79.805 z m 444.246,-1.18 h 74.697 v 107.328 c 7.86,12.578 25.16,16.907 38.13,16.907 14.94,0 23.59,-3.149 23.59,-3.149 v 69.981 c 0,0 -6.29,6.289 -18.47,6.289 -19.27,0 -33.03,-16.118 -43.25,-38.528 0,30.274 -11.4,38.528 -40.89,38.528 -27.908,0 -57.787,-6.289 -57.787,-6.289 v -44.817 h 5.895 c 13.367,-0.394 18.085,-1.574 18.085,-12.582 z m -957.6832,0 h 74.6954 v 129.344 c 0,0 7.8628,6.683 20.0508,6.683 13.758,0 19.262,-7.468 19.262,-20.445 V 410.828 h 74.699 v 113.617 c 0,56.614 -17.301,83.739 -57.402,83.739 -31.45,0 -56.6098,-22.016 -56.6098,-22.016 v 64.867 c 0,26.344 -11.0079,38.528 -40.8868,38.528 -27.914,0 -57.003869,-5.5 -57.003869,-5.5 V 638.457 H 3.53906 c 14.93754,0 20.05074,-1.18 20.05074,-12.187 z m 532.7032,0 h 74.695 v 130.129 c 0,0 8.254,6.289 19.657,6.289 13.367,0 19.656,-7.859 19.656,-20.047 V 410.828 h 74.695 v 114.406 c 0,56.215 -16.902,82.559 -58.183,82.559 -30.27,0 -55.825,-21.625 -55.825,-21.625 v 65.656 c 0,26.34 -11.008,38.133 -40.886,38.133 -27.914,0 -57.399,-4.719 -57.399,-4.719 v -45.601 h 3.145 c 14.937,0 20.445,-1.18 20.445,-12.582 z m 940.777,3.145 v 46.39 c 0,0 -12.97,-5.894 -30.27,-5.894 -23.98,0 -39.71,17.691 -39.71,52.679 0,31.844 14.94,51.5 39.71,51.5 18.48,0 25.95,-4.718 25.95,-4.718 v 46.39 c -11.4,3.934 -18.48,12.188 -18.48,22.805 0,15.727 14.94,21.227 43.24,18.086 V 412.008 h 74.7 v 130.129 c 0,0 8.26,6.293 19.66,6.293 13.36,0 19.65,-7.864 19.65,-20.051 V 412.008 h 74.7 V 526.41 c 0,56.223 -16.9,82.563 -58.18,82.563 -30.27,0 -55.83,-21.625 -55.83,-21.625 v 103.004 h -82.56 c -58.18,0 -96.32,-18.481 -96.32,-55.434 0,-12.973 3.93,-21.621 9.83,-29.484 -47.18,-10.223 -72.34,-47.176 -72.34,-101.43 0,-63.691 42.86,-98.68 96.32,-98.68 31.45,0 49.93,8.649 49.93,8.649 z m 525.23,44.035 c -14.15,0 -23.98,13.758 -23.98,49.531 0,34.598 9.83,51.109 23.98,51.109 14.94,0 23.2,-16.511 23.2,-51.109 0,-35.773 -9.83,-49.531 -23.2,-49.531 z m -204.03,0 c -15.34,0 -23.99,13.758 -23.99,49.531 0,34.598 8.65,51.504 23.99,51.504 14.54,0 23.19,-16.906 23.19,-51.504 0,-35.773 -9.43,-49.531 -23.19,-49.531 z m -980.098,68.797 c 0.785,21.23 8.254,33.418 21.621,33.418 14.941,0 22.016,-11.793 23.195,-33.418 z m -397.465,-3.539 c -12.973,0 -20.051,8.648 -20.051,20.836 0,11.402 7.078,19.66 20.051,19.66 12.188,0 19.656,-7.473 19.656,-19.66 0,-12.188 -7.859,-20.836 -19.656,-20.836 z M 251.609,410.828 h 74.696 v 158.828 c 0,26.34 -11.793,38.528 -40.492,38.528 -27.52,0 -58.184,-6.289 -58.184,-6.289 v -44.817 h 5.504 c 12.972,-0.394 18.476,-1.18 18.476,-12.582 z m 1566.661,-3.539 c 58.97,0 95.92,37.742 95.92,99.859 0,61.329 -36.95,103 -95.92,103 -60.15,0 -96.72,-41.277 -96.72,-102.609 0,-62.113 36.57,-100.25 96.72,-100.25 z m 204.03,0 c 58.58,0 95.93,37.742 95.93,99.859 0,61.329 -37.35,103 -95.93,103 -59.36,0 -96.71,-41.277 -96.71,-102.609 0,-62.113 37.35,-100.25 96.71,-100.25 z M 868.441,405.324 c 45.606,0 73.125,11.008 73.125,11.008 v 47.965 c 0,0 -26.339,-7.863 -53.074,-7.863 -25.554,0 -42.457,9.828 -49.929,31.843 H 948.25 c 0,0 1.965,7.078 1.965,29.879 0,38.922 -18.871,92.387 -89.242,92.387 -60.543,0 -95.926,-44.031 -95.926,-105.359 0,-61.332 38.922,-99.86 103.394,-99.86 z m 1322.909,0 c 26.74,0 39.71,3.934 39.71,3.934 v 53.07 c -2.75,-0.785 -4.72,-0.785 -6.68,-0.785 -13.37,0 -16.91,4.324 -16.91,18.086 v 171.406 c 0,26.344 -11,38.528 -40.88,38.528 -27.92,0 -57.4,-5.5 -57.4,-5.5 v -45.606 h 2.36 c 15.72,0 21.23,-1.18 21.23,-12.187 V 469.801 c 0,-40.492 17.69,-64.477 58.57,-64.477 z M 283.848,621.156 c 32.234,0 41.672,20.446 41.672,38.137 0,18.086 -9.829,36.953 -41.672,36.953 -31.059,0 -40.102,-18.867 -40.102,-37.348 0,-17.687 10.613,-37.742 40.102,-37.742 z m 169.441,316.481 c 0,0 -13.367,4.715 -48.75,4.715 -43.637,0 -71.945,-21.231 -81.773,-33.024 0,29.879 -11.403,33.024 -40.493,33.024 -27.914,0 -57.398,-5.11 -57.398,-5.11 v -45.211 h 5.109 c 13.368,-0.394 18.086,-1.965 18.086,-12.582 V 745.391 h 74.696 v 115.582 c 12.582,11.402 34.203,18.871 55.828,18.476 V 745.391 h 74.695 z M 98.2852,803.18 v 71.16 c 0,0 7.8628,6.289 18.0818,6.289 17.301,0 23.59,-21.621 23.59,-40.492 0,-25.949 -9.828,-42.457 -25.16,-42.457 -9.828,0 -16.5118,5.5 -16.5118,5.5 z M 564.941,937.242 v 42.852 l -74.699,-5.899 v -36.953 h -20.051 v -47.57 h 20.051 v -84.524 c 0,-43.64 21.625,-65.261 71.555,-65.261 29.484,0 42.851,5.504 42.851,5.504 v 50.714 c 0,0 -5.113,-0.785 -12.582,-0.785 -20.445,0 -27.125,7.86 -27.125,20.442 v 73.91 H 619.98 V 745.391 h 74.696 V 937.242 Z M 864.512,804.754 c 0,34.203 -17.297,50.32 -59.364,65.652 -8.648,2.754 -21.23,6.688 -21.23,14.157 0,5.894 4.719,9.433 20.051,9.433 22.41,0 45.601,-5.109 45.601,-5.109 v 44.031 c -11.398,2.75 -16.902,10.613 -16.902,20.051 0,17.691 18.871,24.765 47.176,21.621 V 745.391 h 74.695 V 875.52 c 0,0 8.258,6.289 19.656,6.289 13.368,0 19.66,-7.864 19.66,-20.051 V 745.391 h 74.695 v 114.402 c 0,56.219 -16.9,82.559 -58.18,82.559 -30.276,0 -55.831,-21.622 -55.831,-21.622 v 103 h -86.488 c -61.723,0 -96.321,-18.87 -96.321,-55.429 0,-11.797 3.145,-20.051 8.258,-27.52 -40.496,-1.179 -67.226,-26.34 -67.226,-62.117 0,-30.273 20.836,-53.469 60.933,-65.652 14.157,-4.328 19.266,-7.473 19.266,-13.367 0,-6.293 -8.258,-9.829 -22.41,-9.829 -27.52,0 -55.434,9.829 -55.434,9.829 v -49.536 c 0,0 22.41,-10.222 58.578,-10.222 57.793,0 90.817,28.304 90.817,64.867 z M 23.5898,745.391 h 63.293 l 4.3242,14.547 c 0.3946,0 15.332,-20.051 44.426,-20.051 50.32,0 80.594,48.75 80.594,105.754 0,47.57 -18.086,96.711 -69.981,96.711 -31.449,0 -47.9608,-18.477 -47.9608,-18.477 v 61.723 c 0,26.342 -11.0079,38.132 -40.8868,38.132 C 29.4844,1023.73 0,1019.02 0,1019.02 v -45.61 h 3.14453 c 14.94137,0 20.44527,-1.18 20.44527,-12.582 z M 655.754,949.43 c 32.633,0 41.676,20.441 41.676,38.133 0,18.087 -9.438,36.957 -41.676,36.957 -30.27,0 -40.098,-18.87 -40.098,-37.348 0,-17.692 10.614,-37.742 40.098,-37.742 z m -240.602,3.929 c 32.239,0 41.676,20.446 41.676,38.137 0,18.084 -9.832,36.954 -41.676,36.954 -31.054,0 -40.097,-18.87 -40.097,-37.348 0,-17.692 10.613,-37.743 40.097,-37.743"
         style="fill:#231f20;fill-opacity:1;fill-rule:nonzero;stroke:none"
         id="path14"
         inkscape:connector-curvature="0" /></g></g></svg>