<?xml version="1.0" encoding="UTF-8" standalone="no"?>
<!-- Created with Inkscape (http://www.inkscape.org/) -->

<svg
   xmlns:dc="http://purl.org/dc/elements/1.1/"
   xmlns:cc="http://creativecommons.org/ns#"
   xmlns:rdf="http://www.w3.org/1999/02/22-rdf-syntax-ns#"
   xmlns:svg="http://www.w3.org/2000/svg"
   xmlns="http://www.w3.org/2000/svg"
   xmlns:sodipodi="http://sodipodi.sourceforge.net/DTD/sodipodi-0.dtd"
   xmlns:inkscape="http://www.inkscape.org/namespaces/inkscape"
   version="1.1"
   id="svg3830"
   xml:space="preserve"
   width="517.96002"
   height="146.28"
   viewBox="0 0 517.96002 146.28"
   sodipodi:docname="logo-bgsu.svg"
   inkscape:version="0.92.3 (2405546, 2018-03-11)"><metadata
     id="metadata3836"><rdf:RDF><cc:Work
         rdf:about=""><dc:format>image/svg+xml</dc:format><dc:type
           rdf:resource="http://purl.org/dc/dcmitype/StillImage" /><dc:title></dc:title></cc:Work></rdf:RDF></metadata><defs
     id="defs3834"><clipPath
       clipPathUnits="userSpaceOnUse"
       id="clipPath3848"><path
         d="M 0,0 H 3885 V 1097 H 0 Z"
         id="path3846"
         inkscape:connector-curvature="0" /></clipPath><clipPath
       clipPathUnits="userSpaceOnUse"
       id="clipPath3854"><path
         d="M 0,7.10938 H 3610 V 1097.11 H 0 Z"
         id="path3852"
         inkscape:connector-curvature="0" /></clipPath><clipPath
       clipPathUnits="userSpaceOnUse"
       id="clipPath3860"><path
         d="M 0,7.71094 H 4000.53 V 1089.97 H 0 Z"
         id="path3858"
         inkscape:connector-curvature="0" /></clipPath></defs><sodipodi:namedview
     pagecolor="#ffffff"
     bordercolor="#666666"
     borderopacity="1"
     objecttolerance="10"
     gridtolerance="10"
     guidetolerance="10"
     inkscape:pageopacity="0"
     inkscape:pageshadow="2"
     inkscape:window-width="1343"
     inkscape:window-height="736"
     id="namedview3832"
     showgrid="false"
     inkscape:zoom="1.3573758"
     inkscape:cx="258.98001"
     inkscape:cy="73.139999"
     inkscape:window-x="0"
     inkscape:window-y="27"
     inkscape:window-maximized="0"
     inkscape:current-layer="g3840" /><g
     id="g3838"
     inkscape:groupmode="layer"
     inkscape:label="ink_ext_XXXXXX"
     transform="matrix(1.3333333,0,0,-1.3333333,0,146.28)"><g
       id="g3840"
       transform="scale(0.1)"><g
         id="g3842"><g
           id="g3844"
           clip-path="url(#clipPath3848)"><g
             id="g3850"
             clip-path="url(#clipPath3854)"><g
               id="g3856"
               clip-path="url(#clipPath3860)"><path
                 d="M 0,28.7109 V 1068.37 h 498.23 c 195.833,-1.44 359.989,-89.276 359.989,-272.159 0,-128.148 -108,-205.914 -224.641,-227.508 V 565.82 C 771.82,547.102 884.141,459.258 884.141,310.949 884.141,8.55078 498.23,28.7109 488.148,28.7109 Z M 456.469,230.313 c 72.004,0 125.277,43.195 125.277,107.988 0,57.597 -40.316,112.316 -105.113,116.64 H 287.988 V 230.313 Z m -168.481,424.785 146.879,1.441 c 77.766,0 128.164,30.238 128.164,109.441 0,59.032 -50.398,100.797 -118.082,100.797 H 287.988 V 655.098"
                 style="fill:#f3711c;fill-opacity:1;fill-rule:nonzero;stroke:none"
                 id="path3862"
                 inkscape:connector-curvature="0" /><path
                 d="m 1656.13,417.5 h -211.67 v 201.602 h 499.67 V 63.2695 C 1710.85,28.7109 1666.21,7.10938 1415.66,7.10938 1091.67,17.1914 894.391,223.105 894.391,548.535 c 0,325.434 197.279,531.355 521.269,541.435 251.99,7.2 516.95,-30.24 521.26,-332.63 h -287.99 c -14.4,100.793 -93.6,131.031 -188.63,131.031 -194.4,0 -263.52,-171.348 -263.52,-339.836 0,-204.472 102.24,-339.832 309.59,-339.832 53.28,0 106.56,8.652 149.76,17.285 V 417.5"
                 style="fill:#f3711c;fill-opacity:1;fill-rule:nonzero;stroke:none"
                 id="path3864"
                 inkscape:connector-curvature="0" /><path
                 d="m 2328.54,7.10938 c -165.6,0 -305.28,120.95662 -309.6,292.31662 h 100.8 c 2.88,-159.836 120.96,-205.9143 260.64,-205.9143 116.63,0 250.55,67.6793 250.55,200.1603 0,103.672 -74.88,152.629 -162.72,181.426 -168.47,56.164 -424.79,109.445 -424.79,334.074 0,181.437 167.04,280.798 331.19,280.798 136.8,0 315.36,-47.52 338.4,-247.677 h -100.8 c -2.88,128.156 -119.51,161.277 -226.07,161.277 -108,0 -241.92,-54.722 -241.92,-181.441 0,-295.184 587.51,-161.27 587.51,-519.832 0,-226.0665 -194.4,-295.18762 -403.19,-295.18762"
                 style="fill:#231f20;fill-opacity:1;fill-rule:nonzero;stroke:none"
                 id="path3866"
                 inkscape:connector-curvature="0" /><path
                 d="M 2933.83,1068.37 V 395.898 c 7.21,-188.64 115.19,-302.3863 286.55,-302.3863 171.36,0 279.36,113.7463 286.55,302.3863 v 672.472 h 93.6 V 394.465 C 3597.66,171.27 3472.38,7.10938 3220.38,7.10938 2968.39,7.10938 2843.11,171.27 2840.23,394.465 v 673.905 h 93.6"
                 style="fill:#231f20;fill-opacity:1;fill-rule:nonzero;stroke:none"
                 id="path3868"
                 inkscape:connector-curvature="0" /></g></g></g></g><path
         d="m 3768.46,84.6914 h 6.18 l 6.45,-0.4297 c 4.48,-0.2734 7.85,-0.8633 10.02,-1.7812 4.04,-1.5586 6.8,-4.3203 8.27,-8.25 0.91,-2.3711 1.5,-6.961 1.77,-13.75 0.28,-6.7813 0.86,-11.9492 1.81,-15.5196 h 28.01 l -0.95,3.1797 c -0.36,1.0782 -0.62,2.1797 -0.76,3.2891 -0.13,1.0898 -0.19,2.1797 -0.19,3.2891 v 10.0429 c 0,11.4375 -3.31,19.8164 -9.92,25.1289 -3.54,2.8399 -8.88,5 -15.95,6.461 7.72,0.8281 14.21,3.3672 19.48,7.5544 5.26,4.231 7.9,11.055 7.9,20.489 0,12.363 -4.99,21.308 -14.97,26.816 -5.88,3.195 -13.27,5.109 -22.14,5.754 -1.57,0.098 -9.28,0.164 -23.18,0.215 -13.86,0.047 -24.3,0.058 -31.26,0.058 V 44.9609 h 29.43 z m 27.49,24.3126 c -3.86,-2.734 -9.25,-4.109 -16.11,-4.109 h -11.38 v 32.566 h 7.13 c 7.35,0 13.01,-0.789 17.05,-2.352 6.06,-2.375 9.06,-6.632 9.06,-12.765 0,-6.16 -1.92,-10.594 -5.75,-13.34 z m 59.08,63.918 c -19.78,19.805 -43.65,29.687 -71.6,29.687 -26.67,0 -49.88,-9.179 -69.68,-27.492 -21.09,-19.609 -31.63,-44.207 -31.63,-73.808 0,-28.5082 9.76,-52.5082 29.3,-72.0004 C 3730.92,9.76953 3754.92,0 3783.43,0 c 27.58,0 51.22,9.53906 70.93,28.5898 20.24,19.711 30.37,43.9415 30.37,72.7192 0,27.949 -9.92,51.816 -29.7,71.613 z M 3842.54,160 c 16.2,-16.602 24.31,-36.141 24.31,-58.691 0,-23.1879 -8.14,-43.059 -24.46,-59.6606 -16.32,-16.4765 -35.97,-24.7187 -58.96,-24.7187 -23.09,0 -42.8,8.1797 -59.12,24.582 -16.38,16.418 -24.58,36.3477 -24.58,59.7973 0,22.629 8.04,42.199 24.18,58.691 16.41,16.867 36.25,25.285 59.52,25.285 22.99,0 42.7,-8.418 59.11,-25.285"
         style="fill:#231f20;fill-opacity:1;fill-rule:nonzero;stroke:none"
         id="path3870"
         inkscape:connector-curvature="0" /></g></g></svg>