<?xml version="1.0" encoding="UTF-8" standalone="no"?>
<!-- Created with Inkscape (http://www.inkscape.org/) -->

<svg
   xmlns:dc="http://purl.org/dc/elements/1.1/"
   xmlns:cc="http://creativecommons.org/ns#"
   xmlns:rdf="http://www.w3.org/1999/02/22-rdf-syntax-ns#"
   xmlns:svg="http://www.w3.org/2000/svg"
   xmlns="http://www.w3.org/2000/svg"
   xmlns:sodipodi="http://sodipodi.sourceforge.net/DTD/sodipodi-0.dtd"
   xmlns:inkscape="http://www.inkscape.org/namespaces/inkscape"
   version="1.1"
   id="svg29"
   xml:space="preserve"
   width="258"
   height="119.66667"
   viewBox="0 0 258 119.66667"
   sodipodi:docname="logo-mephi.svg"
   inkscape:version="0.92.3 (2405546, 2018-03-11)"><metadata
     id="metadata35"><rdf:RDF><cc:Work
         rdf:about=""><dc:format>image/svg+xml</dc:format><dc:type
           rdf:resource="http://purl.org/dc/dcmitype/StillImage" /><dc:title></dc:title></cc:Work></rdf:RDF></metadata><defs
     id="defs33" /><sodipodi:namedview
     pagecolor="#ffffff"
     bordercolor="#666666"
     borderopacity="1"
     objecttolerance="10"
     gridtolerance="10"
     guidetolerance="10"
     inkscape:pageopacity="0"
     inkscape:pageshadow="2"
     inkscape:window-width="1680"
     inkscape:window-height="995"
     id="namedview31"
     showgrid="false"
     inkscape:zoom="2.75884"
     inkscape:cx="163.54156"
     inkscape:cy="7.1406816"
     inkscape:window-x="0"
     inkscape:window-y="27"
     inkscape:window-maximized="1"
     inkscape:current-layer="g37" /><g
     id="g37"
     inkscape:groupmode="layer"
     inkscape:label="ink_ext_XXXXXX"
     transform="matrix(1.3333333,0,0,-1.3333333,0,119.66667)"><g
       id="g39"
       transform="scale(0.1)"><path
         d="m 0,200 304.563,432.496 h 37.5 l -2.5,-309.996 292.5,309.996 h 42.5 L 562.063,200 h -92.5 l 62.5,255 -232.5,-255 h -47.5 l 2.5,289.996 L 49.5625,200 H 0 v 0"
         style="fill:#0b4e82;fill-opacity:1;fill-rule:nonzero;stroke:none"
         id="path41"
         inkscape:connector-curvature="0" /><path
         d="m 1467.06,635 102.5,-2.504 -70,-277.496 292.5,277.496 h 60 L 1754.56,200 h -107.5 l 70,289.996 -315,-289.996 h -45 l 110,435 v 0"
         style="fill:#0b4e82;fill-opacity:1;fill-rule:nonzero;stroke:none"
         id="path43"
         inkscape:connector-curvature="0" /><path
         d="m 1073.15,367.313 48.91,187.683 -135.595,-133.199 c 20.265,-18.32 43.455,-34.18 69.175,-46.668 5.82,-2.824 11.66,-5.422 17.51,-7.816 z m -117.134,86.515 326.044,318.668 -105.9,-425.453 c 88.37,0.625 167.61,47.891 201.23,130.227 48.63,119.082 -16.59,266.421 -145.66,329.097 C 1102.66,869.039 958.605,823.305 909.984,704.223 876.332,621.816 897.203,525.879 956.016,453.828 Z M 719.563,632.496 h 110 L 729.563,232.5 908.918,407.793 C 873.18,458.785 852.063,521.797 852.063,590 c 0,169.824 130.957,307.5 292.497,307.5 161.55,0 292.5,-137.676 292.5,-307.5 0,-164.316 -122.59,-298.523 -276.85,-307.07 L 1139.56,200 h -110 l 25.33,97.219 c -45.01,15.222 -85.281,41.609 -117.827,76.051 L 557.063,0 l 162.5,632.496 v 0"
         style="fill:#0b4e82;fill-opacity:1;fill-rule:nonzero;stroke:none"
         id="path45"
         inkscape:connector-curvature="0" /><path
         d="m 1873.3769,239.02358 h 3.09 l 3.225,-0.21484 c 2.24,-0.13669 3.925,-0.43165 5.01,-0.8906 2.02,-0.7793 3.4,-2.16015 4.135,-4.125 0.455,-1.18555 0.75,-3.4805 0.885,-6.875 0.14,-3.39065 0.43,-5.9746 0.905,-7.7598 h 14.005 l -0.475,1.58984 c -0.18,0.5391 -0.3101,1.08985 -0.38,1.64455 -0.065,0.5449 -0.095,1.08985 -0.095,1.64455 v 5.02144 c 0,5.71875 -1.655,9.90821 -4.96,12.56445 -1.77,1.41996 -4.44,2.50001 -7.975,3.23051 3.86,0.41404 7.105,1.6836 9.74,3.77719 2.63,2.11551 3.95,5.52751 3.95,10.24451 0,6.1815 -2.495,10.654 -7.485,13.408 -2.94,1.5975 -6.635,2.5545 -11.07,2.877 -0.785,0.049 -4.64,0.082 -11.59,0.1075 -6.93,0.0235 -12.15,0.029 -15.63,0.029 v -56.13855 h 14.715 z m 13.745,12.1563 c -1.93,-1.367 -4.625,-2.0545 -8.055,-2.0545 h -5.69 v 16.283 h 3.5649 c 3.6751,0 6.5051,-0.3945 8.5251,-1.176 3.03,-1.1875 4.53,-3.316 4.53,-6.3825 0,-3.08 -0.96,-5.297 -2.875,-6.67 z m 29.54,31.959 c -9.89,9.9025 -21.825,14.8435 -35.8,14.8435 -13.335,0 -24.94,-4.5895 -34.84,-13.746 -10.545,-9.8045 -15.815,-22.1035 -15.815,-36.904 0,-14.25411 4.88,-26.2541 14.65,-36.0002 9.75,-9.76954 21.75,-14.65431 36.005,-14.65431 13.79,0 25.61,4.76954 35.465,14.29491 10.12,9.8555 15.185,21.97075 15.185,36.3596 0,13.9745 -4.96,25.908 -14.85,35.8065 z m -6.245,-6.461 c 8.1,-8.301 12.155,-18.0705 12.155,-29.3455 0,-11.59395 -4.07,-21.5295 -12.23,-29.8303 -8.16,-8.23825 -17.985,-12.35935 -29.48,-12.35935 -11.545,0 -21.4,4.08985 -29.56,12.291 -8.19,8.209 -12.29,18.17384 -12.29,29.89865 0,11.3145 4.02,21.0995 12.09,29.3455 8.205,8.4335 18.125,12.6425 29.76,12.6425 11.495,0 21.35,-4.209 29.555,-12.6425"
         style="fill:#0b4e82;fill-opacity:1;fill-rule:nonzero;stroke:none;stroke-width:0.49999997"
         id="path3870"
         inkscape:connector-curvature="0" /></g></g></svg>