<svg width="128" height="128" viewBox="0 0 128 128" fill="none" xmlns="http://www.w3.org/2000/svg">
<g clip-path="url(#clip0)">
<path d="M64 128C99.3462 128 128 99.3462 128 64C128 28.6538 99.3462 0 64 0C28.6538 0 0 28.6538 0 64C0 99.3462 28.6538 128 64 128Z" fill="#382B73"/>
<path d="M95.7664 90.0699C95.8 89.904 95.8213 89.7355 95.8395 89.5659C95.8459 89.5067 95.8565 89.4491 95.8613 89.3893C95.8741 89.2192 95.8741 89.0464 95.872 88.8736C95.8709 88.8117 95.8757 88.7515 95.8725 88.6891C95.872 88.6741 95.8736 88.6587 95.8731 88.6437C95.864 88.4832 95.8395 88.3205 95.8165 88.1589C95.808 88.0987 95.8059 88.0395 95.7957 87.9792C95.7547 87.7429 95.6992 87.5056 95.6261 87.2683L89.7579 68.1472C89.0981 65.9979 87.2411 64.4336 85.0112 64.1488L75.2107 62.8549C75.2544 62.5328 75.1659 62.1931 74.9291 61.9291L72.16 58.8443C71.8336 58.48 71.3125 58.3621 70.8608 58.5488L70.6875 58.6208V55.9141C73.5509 54.0448 75.8005 51.0112 76.9957 47.3483C77.0779 47.3696 77.1611 47.3883 77.2469 47.4C78.792 47.6165 80.2661 46.2096 80.5392 44.2576C80.8128 42.3056 79.7824 40.5477 78.2373 40.3312C78.1285 40.3163 78.0208 40.3104 77.9136 40.3109C77.9125 40.2869 77.9104 40.2635 77.9088 40.2395C77.8987 40.0603 77.8891 39.8811 77.8741 39.7051C77.8651 39.5995 77.8528 39.4955 77.8421 39.3909C77.8261 39.2347 77.8107 39.0779 77.7909 38.9243C77.7765 38.8139 77.7595 38.7061 77.7435 38.5968C77.7221 38.4517 77.7008 38.3067 77.6757 38.1637C77.6565 38.0528 77.6347 37.9435 77.6128 37.8341C77.5861 37.6971 77.5589 37.5605 77.5291 37.4256C77.5045 37.3147 77.4779 37.2053 77.4512 37.0965C77.4197 36.9664 77.3872 36.8368 77.3525 36.7083C77.3232 36.5995 77.2923 36.4917 77.2603 36.3845C77.2235 36.2597 77.1856 36.136 77.1461 36.0133C77.112 35.9067 77.0763 35.8011 77.04 35.696C76.9984 35.5765 76.9557 35.4581 76.9115 35.3408C76.872 35.2368 76.8325 35.1328 76.7915 35.0299C76.7456 34.9163 76.6981 34.8043 76.6501 34.6928C76.6059 34.5904 76.5616 34.488 76.5152 34.3877C76.4656 34.2795 76.4133 34.1739 76.3616 34.0677C76.3125 33.9675 76.264 33.8672 76.2128 33.7691C76.1589 33.6661 76.1029 33.5659 76.0469 33.4651C75.9931 33.368 75.9397 33.2699 75.8843 33.1749C75.8277 33.0784 75.7685 32.9845 75.7093 32.8901C75.6501 32.7941 75.5915 32.6976 75.5301 32.6037C75.472 32.5152 75.4112 32.4299 75.3515 32.3435C75.2853 32.248 75.2208 32.1504 75.1525 32.0571C75.1061 31.9936 75.0571 31.9333 75.0096 31.8709C74.8336 31.6389 74.6507 31.4139 74.4613 31.1963C74.4235 31.1525 74.3867 31.1067 74.3483 31.0635C74.256 30.9605 74.1605 30.8619 74.0656 30.7621C74.0123 30.7067 73.9605 30.6491 73.9061 30.5941C73.8117 30.4987 73.7147 30.4075 73.6176 30.3152C73.5595 30.2603 73.5024 30.2037 73.4432 30.1499C73.3451 30.0603 73.2443 29.9739 73.144 29.8875C73.0832 29.8352 73.0229 29.7819 72.9611 29.7307C72.8587 29.6459 72.7541 29.5643 72.6491 29.4832C72.5861 29.4347 72.5237 29.3856 72.4603 29.3381C72.3536 29.2587 72.2448 29.1813 72.1355 29.1045C72.0709 29.0597 72.0064 29.0144 71.9408 28.9707C71.8288 28.8955 71.7157 28.8224 71.6016 28.7504C71.5371 28.7099 71.4725 28.6699 71.4075 28.6304C71.2896 28.5595 71.1712 28.4901 71.0512 28.4229C70.9872 28.3872 70.9227 28.352 70.8581 28.3168C70.7344 28.2501 70.6091 28.1845 70.4827 28.1216C70.4213 28.0907 70.3589 28.0613 70.2971 28.032C70.2192 27.9947 70.1429 27.9547 70.064 27.9189C70.0635 27.9189 70.0635 27.9189 70.0635 27.9189C70.0091 27.8944 69.9536 27.872 69.8987 27.848C69.8416 27.8229 69.7835 27.7995 69.7259 27.7749C69.6128 27.7269 69.5003 27.6779 69.3856 27.6325C69.3541 27.6203 69.3221 27.6096 69.2907 27.5973C69.2443 27.5797 69.1979 27.5637 69.1515 27.5467C69.0037 27.4917 68.856 27.4379 68.7061 27.3883C68.6315 27.3632 68.5552 27.3413 68.4795 27.3173C68.3232 27.2688 68.1669 27.2208 68.0085 27.1771C67.9216 27.1536 67.8341 27.1317 67.7472 27.1093C67.5973 27.0709 67.4469 27.0347 67.2949 27.0011C67.2016 26.9803 67.1077 26.9611 67.0139 26.9419C66.8645 26.912 66.7141 26.8848 66.5627 26.8592C66.4667 26.8432 66.3712 26.8267 66.2747 26.8128C66.12 26.7899 65.9643 26.7707 65.8075 26.7525C65.7136 26.7413 65.6203 26.7296 65.5259 26.7205C65.44 26.712 65.3536 26.7056 65.2672 26.6981C65.2123 26.6939 65.1568 26.6907 65.1019 26.6869C65.072 26.6848 65.0421 26.6827 65.0117 26.6805C64.9301 26.6757 64.8496 26.6683 64.768 26.664C64.5141 26.6517 64.2587 26.6443 64.0011 26.6443C63.7637 26.6443 63.528 26.6496 63.2933 26.6603C63.2144 26.664 63.136 26.6715 63.0571 26.6757C62.9024 26.6848 62.7472 26.6933 62.5941 26.7072C62.5008 26.7157 62.4091 26.728 62.3168 26.7381C62.1797 26.7531 62.0421 26.7664 61.9061 26.7845C61.8043 26.7984 61.7045 26.8165 61.6037 26.832C61.4789 26.8517 61.3531 26.8699 61.2293 26.8923C61.1243 26.9115 61.0203 26.9349 60.9157 26.9563C60.7984 26.9808 60.6805 27.0032 60.5643 27.0304C60.4571 27.0549 60.352 27.0837 60.2464 27.1109C60.1344 27.1392 60.0224 27.1669 59.912 27.1979C59.8043 27.2283 59.6987 27.2624 59.592 27.2949C59.4853 27.328 59.3781 27.3595 59.2731 27.3947C59.1653 27.4309 59.0587 27.4704 58.952 27.5093C58.8507 27.5456 58.7493 27.5813 58.6491 27.6203C58.5403 27.6624 58.4336 27.7083 58.3264 27.7531C58.2309 27.7931 58.1349 27.832 58.0405 27.8747C57.9317 27.9232 57.8251 27.9749 57.7179 28.0261C57.6277 28.0693 57.5371 28.112 57.4485 28.1568C57.3403 28.2117 57.2341 28.2693 57.1275 28.3269C57.0421 28.3733 56.9563 28.4192 56.872 28.4672C56.7653 28.528 56.6603 28.592 56.5552 28.656C56.4741 28.7051 56.3936 28.7541 56.3136 28.8048C56.208 28.872 56.1045 28.9424 56.0011 29.0128C55.9253 29.0645 55.8491 29.1157 55.7744 29.1691C55.6699 29.2432 55.568 29.32 55.4656 29.3973C55.3947 29.4512 55.3243 29.5045 55.2544 29.5595C55.1515 29.6411 55.0507 29.7248 54.9504 29.8091C54.8848 29.8645 54.8192 29.92 54.7541 29.9765C54.6533 30.0645 54.5547 30.1552 54.4565 30.2469C54.3957 30.304 54.3349 30.3611 54.2752 30.4192C54.1771 30.5147 54.0805 30.6123 53.9851 30.7115C53.9291 30.7696 53.8731 30.8283 53.8176 30.888C53.7221 30.9909 53.6283 31.096 53.5355 31.2021C53.4843 31.2613 53.4331 31.3211 53.3829 31.3813C53.2901 31.4917 53.1989 31.6043 53.1099 31.7184C53.0635 31.7781 53.0171 31.8384 52.9717 31.8992C52.8827 32.0176 52.7947 32.1371 52.7093 32.2592C52.6672 32.3195 52.6251 32.3808 52.5835 32.4421C52.4981 32.568 52.4144 32.6955 52.3328 32.8251C52.2949 32.8853 52.2576 32.9467 52.2208 33.0075C52.1392 33.1419 52.0597 33.2779 51.9824 33.416C51.9488 33.4757 51.9163 33.5365 51.8837 33.5968C51.8064 33.7397 51.7312 33.8837 51.6587 34.0304C51.6293 34.0891 51.6016 34.1493 51.5728 34.2085C51.5003 34.36 51.4299 34.5131 51.3621 34.6688C51.3371 34.7264 51.3136 34.7845 51.2891 34.8427C51.2219 35.0032 51.1563 35.1653 51.0939 35.3301C51.0725 35.3856 51.0533 35.4427 51.0325 35.4987C50.9707 35.6688 50.9104 35.8411 50.8544 36.0155C50.8373 36.0683 50.8219 36.1216 50.8053 36.1749C50.7493 36.3557 50.6955 36.5381 50.6453 36.7232C50.632 36.7723 50.6203 36.8229 50.6075 36.872C50.5579 37.064 50.5099 37.2571 50.4667 37.4539C50.4571 37.4981 50.4485 37.5429 50.4395 37.5872C50.3963 37.7909 50.3557 37.9963 50.32 38.2053C50.3131 38.2443 50.3077 38.2843 50.3013 38.3237C50.2656 38.5403 50.2325 38.7584 50.2048 38.9803C50.2011 39.0101 50.1984 39.04 50.1947 39.0699C50.1669 39.3024 50.1419 39.5376 50.1227 39.776C50.1211 39.7936 50.1205 39.8112 50.1189 39.8293C50.1067 39.9883 50.096 40.1488 50.0875 40.3104C49.9803 40.3099 49.872 40.3152 49.7637 40.3307C48.2187 40.5472 47.1883 42.3051 47.4619 44.2571C47.7355 46.2091 49.2096 47.616 50.7547 47.3995C50.84 47.3872 50.9232 47.3691 51.0059 47.3477C52.2005 51.0101 54.4507 54.0443 57.3141 55.9136V58.6203L57.1408 58.5483C56.6891 58.3611 56.168 58.4795 55.8416 58.8437L53.0725 61.9285C52.8357 62.1925 52.7472 62.5323 52.7909 62.8544L42.9904 64.1483C40.76 64.4331 38.9029 65.9973 38.2437 68.1467L32.584 86.5872L32.496 86.8741L32.3749 87.2677C32.3024 87.5051 32.2469 87.7419 32.2053 87.9787C32.1947 88.0389 32.1931 88.0981 32.1845 88.1579C32.1616 88.32 32.1371 88.4821 32.128 88.6427C32.1269 88.6576 32.1291 88.6731 32.128 88.688C32.1248 88.7499 32.1296 88.8101 32.1285 88.872C32.1259 89.0453 32.1259 89.2176 32.1392 89.3883C32.144 89.448 32.1547 89.5067 32.1611 89.5659C32.1797 89.7349 32.2011 89.9029 32.2341 90.0677C32.2368 90.0811 32.2373 90.0955 32.24 90.1088C32.2405 90.1061 32.2416 90.1035 32.2421 90.1003C32.4565 91.1349 32.9499 92.0864 33.6576 92.848C34.6885 93.9579 36.1627 94.6704 37.8469 94.6704H39.9659C39.9856 94.7381 40.0016 94.8085 40.0288 94.8725C40.0747 94.9808 40.1307 95.0837 40.1957 95.1797C40.296 95.3285 40.4235 95.4555 40.5627 95.568C40.6347 95.6267 40.7104 95.6795 40.7915 95.7264C40.9573 95.8229 41.136 95.9003 41.3296 95.9397C41.4475 95.9637 41.5691 95.9765 41.6939 95.9765H85.9813C86.6053 95.9765 87.1552 95.6608 87.48 95.1797C87.5451 95.0837 87.6011 94.9808 87.6469 94.8725C87.6741 94.808 87.6901 94.7387 87.7099 94.6704H90.1557C91.84 94.6704 93.3141 93.9579 94.3451 92.848C95.0528 92.0859 95.5461 91.1349 95.7605 90.1003C95.7611 90.1029 95.7621 90.1056 95.7627 90.1083C95.7632 90.0971 95.7637 90.0832 95.7664 90.0699Z" fill="#382B73"/>
<path d="M92.6005 96.9819H35.3995C31.1899 96.9819 28.1803 92.9099 29.4155 88.8859L35.8325 67.9765C36.5541 65.6261 38.5845 63.9157 41.0235 63.6043L64 60.5701L86.976 63.6037C89.4149 63.9152 91.4459 65.6256 92.1669 67.976L98.584 88.8853C99.8197 92.9099 96.8101 96.9819 92.6005 96.9819Z" fill="#1CAEE4"/>
<path d="M29.4154 91.4075L35.8325 70.4981C36.5541 68.1477 38.5845 66.4373 41.0234 66.1253L64 63.0917L86.976 66.1253C89.4149 66.4368 91.4459 68.1472 92.1669 70.4981L98.584 91.4075C98.6437 91.6027 98.6906 91.7979 98.7312 91.9925C98.9376 91.0032 98.9088 89.9429 98.584 88.8853L92.1669 67.976C91.4453 65.6256 89.4149 63.9152 86.976 63.6037L64 60.5701L41.0234 63.6037C38.5845 63.9152 36.5541 65.6256 35.8325 67.976L29.4154 88.8853C29.0906 89.9429 29.0618 91.0032 29.2682 91.9925C29.3088 91.7979 29.3557 91.6027 29.4154 91.4075Z" fill="#27C1E6"/>
<path d="M98.3563 88.1419C97.4133 90.3328 95.2437 91.9381 92.6005 91.9381H35.3995C32.7563 91.9381 30.5872 90.3323 29.6437 88.1419L29.4155 88.8859C28.1803 92.9099 31.1899 96.9819 35.3995 96.9819H92.6005C96.8101 96.9819 99.8197 92.9099 98.5845 88.8859L98.3563 88.1419Z" fill="#009ADD"/>
<path d="M39.0981 96.9819L41.8149 81.9552C41.9168 81.3909 42.7317 81.4075 42.8107 81.9755L44.8976 96.9819H39.0981Z" fill="#009ADD"/>
<path d="M88.9019 96.9819L86.1851 81.9552C86.0832 81.3909 85.2683 81.4075 85.1893 81.9755L83.1024 96.9819H88.9019Z" fill="#009ADD"/>
<path d="M64 56.8235C61.3498 56.8235 58.8581 56.016 56.6869 54.599V61.936C56.6869 65.975 59.961 69.2491 64 69.2491C68.0389 69.2491 71.313 65.975 71.313 61.936V54.5984C69.1418 56.0166 66.6501 56.8235 64 56.8235Z" fill="#E7AD27"/>
<path d="M52.0315 44.7414C52.3307 46.8758 51.2037 48.7984 49.5141 49.0352C47.8245 49.272 46.2128 47.7334 45.9136 45.599C45.6144 43.4646 46.7413 41.5419 48.4309 41.3051C50.1205 41.0683 51.7323 42.607 52.0315 44.7414Z" fill="#F6CA14"/>
<path d="M75.9685 44.7414C75.6693 46.8758 76.7963 48.7984 78.4859 49.0352C80.1755 49.272 81.7872 47.7334 82.0864 45.599C82.3856 43.4646 81.2587 41.5419 79.5691 41.3051C77.8795 41.0683 76.2677 42.607 75.9685 44.7414Z" fill="#F6CA14"/>
<path d="M79.2464 42.3968C79.2464 52.4336 72.4203 60.5701 64 60.5701C55.5797 60.5701 48.7536 52.4336 48.7536 42.3968C48.7536 32.36 55.5797 26.3382 64 26.3382C72.4203 26.3382 79.2464 32.3595 79.2464 42.3968Z" fill="#FDDD3A"/>
<path d="M64 58.9942C55.8021 58.9942 49.1179 51.2811 48.7701 41.6112C48.7605 41.8704 48.7536 42.1318 48.7536 42.3968C48.7536 52.4336 55.5797 60.5702 64 60.5702C72.4203 60.5702 79.2464 52.4336 79.2464 42.3968C79.2464 42.1318 79.2389 41.871 79.2293 41.6112C78.8821 51.2811 72.1979 58.9942 64 58.9942Z" fill="#F6CA14"/>
<path d="M79.2059 43.6619C78.6971 35.032 72.9553 29.6523 65.6678 28.9424C65.567 29.6288 65.5131 30.3307 65.5131 31.0454C65.5131 38.6982 71.495 44.9483 79.0374 45.3888C79.1163 44.8214 79.1718 44.2454 79.2059 43.6619Z" fill="#F6CA14"/>
<path d="M48.7536 42.3968C48.7536 43.223 48.8043 44.0341 48.8939 44.8309C50.3173 45.2117 51.8112 45.4192 53.3547 45.4192C62.9013 45.4192 70.6411 37.68 70.6411 28.1328C70.6411 27.9984 70.6341 27.8662 70.6309 27.7323C68.6261 26.8182 66.3771 26.3382 64.0005 26.3382C55.5797 26.3382 48.7536 32.3595 48.7536 42.3968Z" fill="#F6CA14"/>
<path d="M48.7707 41.592C50.5931 42.4277 52.6182 42.8971 54.7536 42.8971C62.6923 42.8971 69.1275 36.4619 69.1275 28.5232C69.1275 28.0507 69.103 27.5845 69.0587 27.1237C67.4752 26.608 65.7739 26.3376 64 26.3376C55.8075 26.3381 49.1264 32.0395 48.7707 41.592Z" fill="#0099DC"/>
<path d="M64 28.8598C65.7739 28.8598 67.4752 29.1301 69.0587 29.6459C69.063 29.6928 69.0651 29.7397 69.0688 29.7867C69.1051 29.3701 69.1275 28.9493 69.1275 28.5237C69.1275 28.0512 69.103 27.5851 69.0587 27.1243C67.4752 26.6086 65.7739 26.3382 64 26.3382C55.8075 26.3382 49.1264 32.04 48.7707 41.5925C48.8491 41.6283 48.9302 41.6598 49.0096 41.6944C50.312 33.6075 56.5254 28.8598 64 28.8598Z" fill="#1CADE3"/>
<path d="M65.6677 26.4203C65.5669 27.1067 65.5131 27.8085 65.5131 28.5232C65.5131 36.2432 71.6 42.5403 79.2363 42.8805C79.24 42.7189 79.2464 42.5589 79.2464 42.3963C79.2464 33.032 73.3029 27.1643 65.6677 26.4203Z" fill="#1CADE3"/>
<path d="M65.6677 28.9419C72.7307 29.6304 78.3419 34.7051 79.144 42.8741C79.1749 42.8757 79.2053 42.8795 79.2363 42.8805C79.24 42.7189 79.2464 42.5589 79.2464 42.3963C79.2464 33.0315 73.3029 27.1643 65.6677 26.4197C65.5669 27.1061 65.5131 27.808 65.5131 28.5227C65.5131 28.9483 65.5349 29.3685 65.5712 29.7851C65.5957 29.5024 65.6267 29.2208 65.6677 28.9419Z" fill="#23C1E6"/>
<path d="M65.5845 51.4123L64.399 52.5984C64.1787 52.8187 63.8213 52.8187 63.6011 52.5984L62.415 51.4123C62.0598 51.0571 62.3115 50.4496 62.8139 50.4496H65.1856C65.6886 50.4496 65.9397 51.0571 65.5845 51.4123Z" fill="#F6CA14"/>
<path d="M81.865 93.512H45.8085C45.1658 93.512 44.6288 93.024 44.5669 92.3846L42.313 69.0891C42.2421 68.3563 42.8181 67.7216 43.5546 67.7216H84.1184C84.8549 67.7216 85.4309 68.3563 85.36 69.0891L83.1066 92.3846C83.0448 93.0246 82.5077 93.512 81.865 93.512Z" fill="#D1D3D4"/>
<path d="M43.5546 68.8517H84.1184C84.673 68.8517 85.136 69.2117 85.3008 69.7024L85.36 69.0901C85.4309 68.3573 84.8549 67.7227 84.1184 67.7227H43.5546C42.8181 67.7227 42.2421 68.3568 42.313 69.0901L42.3722 69.7024C42.5376 69.2112 43.0005 68.8517 43.5546 68.8517Z" fill="white"/>
<path d="M63.8032 84.6325C66.5961 84.6325 68.8602 82.5922 68.8602 80.0752C68.8602 77.5583 66.5961 75.5179 63.8032 75.5179C61.0102 75.5179 58.7461 77.5583 58.7461 80.0752C58.7461 82.5922 61.0102 84.6325 63.8032 84.6325Z" fill="white"/>
<path d="M85.0949 96.9819H42.5781C41.6202 96.9819 40.8431 96.2053 40.8431 95.2469C40.8431 94.2885 41.6197 93.512 42.5781 93.512H85.0949C86.0527 93.512 86.8298 94.2885 86.8298 95.2469C86.8298 96.2053 86.0533 96.9819 85.0949 96.9819Z" fill="#E6E7E8"/>
<path d="M86.8299 95.2469C86.8299 95.1589 86.8198 95.0747 86.8091 94.9909C86.791 94.8699 86.7611 94.7531 86.7195 94.6416C86.5067 95.2731 86.0011 95.72 85.4059 95.72H42.2677C41.6725 95.72 41.1675 95.2731 40.9542 94.6416C40.9126 94.7531 40.8827 94.8699 40.8646 94.9909C40.8539 95.0747 40.8438 95.1595 40.8438 95.2469C40.8438 96.2048 41.6203 96.9819 42.5787 96.9819H85.0955C86.0534 96.9819 86.8299 96.2053 86.8299 95.2469Z" fill="#D1D3D4"/>
<path d="M67.6368 92.4811H60.0368C59.8474 92.4811 59.6938 92.3275 59.6938 92.1381V92.0672C59.6938 91.8779 59.8474 91.7243 60.0368 91.7243H67.6368C67.8261 91.7243 67.9797 91.8779 67.9797 92.0672V92.1381C67.9797 92.3275 67.8261 92.4811 67.6368 92.4811Z" fill="white"/>
<path d="M86.2486 93.9536C85.9419 93.68 85.5387 93.512 85.095 93.512H42.5782C42.135 93.512 41.7312 93.68 41.4246 93.9536H86.2486Z" fill="white"/>
</g>
<defs>
<clipPath id="clip0">
<rect width="128" height="128" fill="white"/>
</clipPath>
</defs>
</svg>
