<svg width="128" height="128" viewBox="0 0 128 128" fill="none" xmlns="http://www.w3.org/2000/svg">
<circle cx="64" cy="64" r="64" fill="#222222"/>
<path d="M46.9293 35H90L88 43H46.3714C44.0921 43 42.1014 44.5414 41.5307 46.7481L35.6467 69.4992C35.3193 70.7654 36.2752 72 37.583 72H68.3071C70.5022 72 72.4405 70.5684 73.086 68.4704L76 59H84L81.1271 69.447C79.5753 75.0897 74.4445 79 68.5924 79H36.7833C30.8489 79 26.5389 73.3572 28.1004 67.632L34.3874 44.5795C35.9299 38.9237 41.067 35 46.9293 35Z" fill="#1965B1"/>
<path d="M80.0707 92L37 92L39 84L80.6286 84C82.9079 84 84.8986 82.4586 85.4693 80.2519L91.3533 57.5008C91.6807 56.2346 90.7248 55 89.417 55L58.6929 55C56.4979 55 54.5595 56.4316 53.914 58.5296L51 68L43 68L45.8729 57.553C47.4247 51.9103 52.5555 48 58.4076 48L90.2168 48C96.1511 48 100.461 53.6428 98.8996 59.368L92.6126 82.4205C91.0701 88.0763 85.933 92 80.0707 92Z" fill="#FF8133"/>
</svg>
