<svg width="128" height="128" viewBox="0 0 128 128" fill="none" xmlns="http://www.w3.org/2000/svg">
<mask id="mask0" mask-type="alpha" maskUnits="userSpaceOnUse" x="0" y="0" width="128" height="128">
<circle cx="64" cy="64" r="64" fill="black"/>
</mask>
<g mask="url(#mask0)">
<circle cx="64" cy="64" r="64" fill="url(#paint0_linear)"/>
<path d="M100.778 84.0825C99.9729 84.0825 99.5874 83.7123 99.5874 83.2581C99.5874 82.9049 99.7212 82.737 99.805 82.6697C100.04 82.6863 100.308 82.703 100.56 82.703H101.718C102.154 82.703 102.339 82.8546 102.339 83.1406C102.339 83.662 101.735 84.0825 100.778 84.0825ZM88.2447 82.8044C90.7449 82.8044 92.1375 81.6101 92.1375 80.0288C92.1375 78.5486 91.2147 78.0947 89.1844 77.1696C88.7815 76.9843 88.698 76.8334 88.698 76.6146C88.698 76.4295 88.8657 76.2276 89.4361 76.2276C90.1576 76.2276 91.0133 76.3455 91.651 76.5473V74.3945C91.651 74.3945 91.6174 74.3775 91.5503 74.3607C91.1476 74.2598 90.8287 74.0412 90.8287 73.6878C90.8287 73.1162 91.7176 73.0152 93.0937 73.0152H96.114V70.8286H92.3892C89.8388 70.8286 88.228 71.5519 88.228 73.0992C88.228 73.5534 88.379 73.8731 88.6138 74.1589C87.0366 74.344 85.6275 75.1009 85.6275 76.7997C85.6275 78.2965 86.651 79.1209 88.2447 79.6253C88.8323 79.8104 89.0668 79.9955 89.0668 80.2306C89.0668 80.5336 88.7314 80.685 88.077 80.685C86.9196 80.685 85.7449 80.2474 85.7449 80.2474V82.3837C85.7449 82.3837 86.7181 82.8044 88.2447 82.8044ZM104.855 82.5856C104.855 81.1056 104.117 80.4327 102.137 80.4327H100.677C100.191 80.4327 99.9226 80.3487 99.9226 80.0457C99.9226 79.7934 100.074 79.7095 100.09 79.6925C100.325 79.7095 100.577 79.7262 100.828 79.7262C103.06 79.7262 104.621 78.633 104.621 76.9676C104.621 76.7492 104.587 76.5473 104.537 76.3455H105.778V82.5856H108.966V77.0857C108.966 77.0857 109.335 76.7492 109.906 76.7492C110.51 76.7492 110.812 77.1192 110.812 77.7078V82.5856H114V78.1117C114 75.6895 113.446 74.1754 111.298 74.1754C110.292 74.1754 109.47 74.5793 108.731 75.1175V74.1754L102.574 74.4114C102.07 74.2263 101.449 74.1252 100.761 74.1252C98.2113 74.1252 96.8858 75.4204 96.8858 76.951C96.8858 78.0273 97.4562 78.8347 98.4799 79.2888C97.9091 79.5076 97.3052 80.0288 97.3052 80.9203C97.3052 81.4754 97.5738 81.8789 98.0099 82.148C97.6239 82.3668 97.1039 82.8883 97.1039 83.6957C97.1039 85.2263 98.698 86 100.543 86C103.429 86 104.855 84.3685 104.855 82.5856ZM35.1745 80.6345C34.7885 80.6345 34.537 80.382 34.537 79.8776C34.537 79.4402 34.8221 79.1039 35.3253 79.1039H35.9964V80.1804C35.9964 80.1804 35.728 80.6345 35.1745 80.6345ZM58.2113 80.399C57.7248 80.399 57.389 80.113 57.389 79.5916C57.389 79.2384 57.5905 78.8179 57.9763 78.4984C58.0269 78.5486 58.0939 78.5993 58.1612 78.6498L59.5704 79.7095C59.151 80.113 58.7145 80.399 58.2113 80.399ZM71.8018 80.2306C71.1641 80.2306 70.795 79.5579 70.795 78.5151C70.795 77.4892 71.1307 76.5136 71.8689 76.5136C72.2885 76.5136 72.5905 76.7492 72.5905 76.7492V79.9448C72.5905 79.9448 72.2384 80.2306 71.8018 80.2306ZM18.8492 80.6008C18.1946 80.6008 17.8088 80.0288 17.8088 78.5151C17.8088 77.0185 18.1946 76.3455 18.8492 76.3455C19.4194 76.3455 19.8221 77.0185 19.8221 78.5151C19.8221 80.0288 19.4027 80.6008 18.8492 80.6008ZM80.1242 77.8087C80.1574 76.9004 80.4932 76.2446 81.0635 76.2446C81.6506 76.2446 81.9695 76.8838 82.0201 77.8087H80.1242ZM100.761 77.8087C100.208 77.8087 99.9059 77.4385 99.9059 76.9173C99.9059 76.4295 100.208 76.0762 100.761 76.0762C101.282 76.0762 101.6 76.396 101.6 76.9173C101.6 77.4385 101.265 77.8087 100.761 77.8087ZM92.8251 82.5856H96.0133V74.3607H92.7752L92.8251 82.5856ZM18.8492 82.7874C21.349 82.7874 22.9262 81.2231 22.9262 78.5486C22.9262 75.9081 21.349 74.1589 18.8492 74.1589C16.2652 74.1589 14.705 75.8913 14.705 78.5319C14.705 81.2064 16.2652 82.7874 18.8492 82.7874ZM70.5603 82.7874C71.8187 82.7874 72.5233 82.1649 72.9093 81.6438C73.0436 82.4846 73.6138 82.7874 74.4359 82.7874C75.5434 82.7874 76.8185 82.5856 76.8185 82.5856V80.6345H76.4831C75.9797 80.6178 75.7788 80.5166 75.7788 80.0962V72.292C75.7788 71.1314 75.2413 70.6605 74 70.6605C72.8422 70.6605 71.5671 70.8793 71.5671 70.8793V72.8134H71.6339C72.2885 72.8134 72.5905 72.8471 72.5905 73.3685V74.7307C72.2718 74.4954 71.7851 74.1589 70.9628 74.1589C68.8993 74.1589 67.6239 76.2109 67.6239 78.7002C67.6239 81.3747 68.7312 82.7874 70.5603 82.7874ZM51.2481 76.4127V74.3607H49.5366V72.5441L46.3488 72.7797V74.3607C46.1978 74.3607 44.9395 74.3775 44.084 75.5716C44.084 74.4786 43.3289 74.1422 42.3219 74.1422C41.1476 74.1422 39.8892 74.3607 39.8892 74.3607V76.295H40.1242C40.7113 76.312 40.8959 76.3792 40.8959 76.8501V82.5856H44.084V77.6403C44.4867 76.951 45.5269 76.4967 46.3488 76.4967V80.0288C46.3488 81.8789 47.2212 82.7874 49.386 82.7874C50.6275 82.7874 51.2149 82.5856 51.2149 82.5856V80.4159C51.2149 80.4159 50.963 80.4492 50.6779 80.4492C49.8052 80.4492 49.5366 80.113 49.5366 79.5748V76.4127H51.2481ZM37.8758 82.703C38.9162 82.703 40.0233 82.5014 40.0233 82.5014V80.5506H39.9397C39.2519 80.5506 39.0167 80.5166 39.0167 80.0122V77.5396C39.0167 74.9495 37.7919 74.0749 35.1912 74.0749C33.5133 74.0749 32.2382 74.4447 32.2382 74.4447V76.6483C32.2382 76.6483 33.2953 76.2781 34.4027 76.2781C35.5266 76.2781 35.9964 76.7659 35.9964 77.2875V77.4892H34.9228C32.7415 77.4892 31.5675 78.5656 31.5675 80.2643C31.5675 81.8624 32.6242 82.703 34.0503 82.703C35.2079 82.703 35.879 82.1986 36.2316 81.8286C36.3993 82.4005 36.9528 82.703 37.8758 82.703ZM81.3655 82.703C83.312 82.703 84.5032 82.2493 84.5032 82.2493V80.1299C84.5032 80.1299 83.379 80.4327 82.2382 80.4327C81.1479 80.4327 80.4429 80.1973 80.1409 79.373H84.7716C84.7716 79.373 84.8555 79.0535 84.8555 78.0779C84.8555 76.396 84.0835 74.0749 81.0969 74.0749C78.4797 74.0749 76.9865 75.9416 76.9865 78.5656C76.9865 81.1892 78.698 82.703 81.3655 82.703ZM57.775 74.1422C57.775 73.6206 58.1106 73.2169 58.698 73.2169C59.1846 73.2169 59.5874 73.5703 59.5874 74.1422C59.5874 74.7812 59.1007 75.2353 58.5637 75.639C57.9763 75.1009 57.775 74.6972 57.775 74.1422ZM63.8488 82.9558L65.2752 80.7692L63.1612 79.1881L65.7447 75.9925H62.8591L61.2984 77.775L60.2917 77.0185C61.5167 76.0595 62.2887 75.2184 62.2887 73.9738C62.2887 72.3423 60.9465 70.9968 58.6643 70.9968C56.584 70.9968 55.0905 72.4265 55.0905 74.2766C55.0905 75.3363 55.4765 76.1604 56.265 77.0015C54.9731 77.8589 54.3858 78.8347 54.3858 80.1469C54.3858 81.7614 55.8959 82.7874 57.842 82.7874C59.2011 82.7874 60.3422 82.3165 61.4833 81.1726L63.8488 82.9558ZM27.2049 70.6605C25.0569 70.6605 24.0334 71.6697 24.0334 73.4022V74.3607H23.144V76.4127H24.0334V84.9066H27.2214V76.4127H28.698V74.3607H27.2049V73.8563C27.2049 73.335 27.4901 73.0657 28.4296 73.0657H28.8323V70.8452C28.8323 70.8452 28.2618 70.6605 27.2049 70.6605ZM32.8424 69.8699C32.037 69.8699 31.6508 69.4999 31.6508 69.046C31.6508 68.6927 31.7851 68.5244 31.8691 68.4572C32.1041 68.4741 32.3725 68.4909 32.6242 68.4909H33.7817C34.2183 68.4909 34.4027 68.642 34.4027 68.9279C34.4027 69.4494 33.7986 69.8699 32.8424 69.8699ZM67.3221 68.6588C69.8219 68.6588 71.2147 67.4649 71.2147 65.8836C71.2147 64.4037 70.2917 63.9493 68.2618 63.0245C67.8589 62.8396 67.7752 62.688 67.7752 62.4692C67.7752 62.2843 67.9429 62.0825 68.5133 62.0825C69.235 62.0825 70.0903 62.2001 70.728 62.402V60.2493C70.728 60.2493 69.9059 59.9802 68.4463 59.9802C66.6005 59.9802 64.7045 60.6865 64.7045 62.6543C64.7045 64.1512 65.728 64.9753 67.3221 65.4801C67.9093 65.6652 68.1442 65.8499 68.1442 66.0855C68.1442 66.3884 67.8088 66.5396 67.1542 66.5396C65.9964 66.5396 64.8221 66.1024 64.8221 66.1024V68.2381C64.8221 68.2381 65.7953 68.6588 67.3221 68.6588ZM36.9194 68.3728C36.9194 66.8929 36.1813 66.2201 34.2014 66.2201H32.7415C32.2549 66.2201 31.9865 66.1357 31.9865 65.8334C31.9865 65.6317 32.0874 65.5304 32.1375 65.4971C32.3725 65.5136 32.6242 65.5304 32.8758 65.5304C35.1074 65.5304 36.6679 64.4372 36.6679 62.7722C36.6679 62.0657 36.3826 61.4265 35.8621 60.9221L36.6512 59.0719L34.6041 58.3992L34.0334 60.0475C33.6646 59.9633 33.2618 59.9296 32.8088 59.9296C30.2585 59.9296 28.9327 61.2246 28.9327 62.7554C28.9327 63.8317 29.5034 64.6221 30.5099 65.0932C29.9731 65.2953 29.3691 65.8164 29.3691 66.708C29.3691 67.263 29.6375 67.6665 30.074 67.9358C29.688 68.1544 29.1679 68.6758 29.1679 69.4831C29.1679 71.0137 30.7616 71.7872 32.6074 71.7872C35.4932 71.7872 36.9194 70.1557 36.9194 68.3728ZM55.8792 68.4235H59.0671V63.8317C59.4025 63.2935 60.1407 63.1087 60.6944 63.1087C61.3321 63.1087 61.7014 63.2431 61.7014 63.2431V60.2493C61.7014 60.2493 61.4327 59.9802 60.9127 59.9802C60.0905 59.9802 59.5034 60.6695 59.0671 61.6283C59.0671 60.3333 58.5804 59.9802 57.3219 59.9802C56.1307 59.9802 54.8555 60.2493 54.8555 60.2493V62.1664H55.1074C55.6779 62.1834 55.8792 62.2338 55.8792 62.705V68.4235ZM15.0068 68.4235H18.1946V62.8898C18.1946 62.8898 18.53 62.6038 19.0505 62.6038C19.6375 62.6038 19.8727 62.9233 19.8727 63.4784V68.4235H23.0605V63.5626C23.0605 61.1404 22.3223 59.9802 20.6108 59.9802C19.2684 59.9802 18.1946 60.9221 18.1946 60.9221V58.1465C18.1946 57.0198 17.7248 56.4984 16.4497 56.4984C15.2582 56.4984 14.0169 56.7339 14.0169 56.7339V58.6852H14.1512C14.7885 58.6852 15.0068 58.7355 15.0068 59.2064V68.4235ZM37.7415 68.4235H40.9296V62.8561C40.9296 62.8561 41.2819 62.5871 41.7686 62.5871C42.3388 62.5871 42.6072 62.9233 42.6072 63.4449V68.4235H45.7951V63.5289C45.7951 61.1239 45.0738 59.9968 43.312 59.9968C42.0201 59.9968 40.9296 60.9221 40.9296 60.9221V58.1132C40.9296 56.986 40.4596 56.4816 39.1846 56.4816C37.9932 56.4816 36.735 56.6835 36.735 56.6835V58.6343H36.8693C37.5068 58.6343 37.7415 58.6852 37.7415 59.1726V68.4235ZM77.8923 68.289V66.3041C77.8923 66.3041 77.3388 66.5566 76.6005 66.5566C75.5774 66.5566 74.9057 65.7997 74.9057 64.3026C74.9057 62.9403 75.5434 62.0992 76.6005 62.0992C77.3892 62.0992 77.7079 62.3011 77.7079 62.3011V60.3165C77.2212 60.1482 76.9192 59.7949 76.9192 59.341C76.9192 58.668 77.5569 58.4325 78.765 58.5671V68.3728H81.9528V62.8057C81.9528 62.8057 82.3052 62.5366 82.7917 62.5366C83.3621 62.5366 83.6307 62.8731 83.6307 63.3943V68.3728H86.8185V63.4784C86.8185 61.0732 86.0973 59.9465 84.3354 59.9465C83.0434 59.9465 81.9528 60.8714 81.9528 60.8714V56.4647H78.4296C75.9461 56.4647 74.3187 57.2553 74.3187 58.8362C74.3187 59.3912 74.4865 59.7614 74.7384 60.0977C72.7246 60.5351 71.6508 62.116 71.6508 64.4372C71.6508 67.1619 73.4795 68.6588 75.7616 68.6588C77.1039 68.6588 77.8923 68.289 77.8923 68.289ZM100.308 66.405C99.7045 66.405 99.2849 65.8164 99.2849 64.2856C99.2849 62.8057 99.7045 62.0992 100.308 62.0992C100.946 62.0992 101.298 62.8057 101.298 64.2856C101.298 65.8164 100.879 66.405 100.308 66.405ZM91.6005 66.405C90.9463 66.405 90.5772 65.8164 90.5772 64.2856C90.5772 62.8057 90.9463 62.0825 91.6005 62.0825C92.2215 62.0825 92.5905 62.8057 92.5905 64.2856C92.5905 65.8164 92.1878 66.405 91.6005 66.405ZM49.7718 63.4615C49.8052 62.5534 50.1242 62.0318 50.6946 62.0318C51.3321 62.0318 51.6343 62.5366 51.6846 63.4615H49.7718ZM32.8088 63.6131C32.2549 63.6131 31.953 63.2431 31.953 62.7215C31.953 62.2338 32.2549 61.8808 32.8088 61.8808C33.3291 61.8808 33.6476 62.2001 33.6476 62.7215C33.6476 63.2431 33.3122 63.6131 32.8088 63.6131ZM24.7382 68.4235H27.9262V61.6283C27.9262 60.5016 27.423 59.9802 26.1982 59.9802C25.0235 59.9802 23.7149 60.2493 23.7149 60.2493V62.1664H23.9499C24.5032 62.1834 24.7382 62.2171 24.7382 62.705V68.4235ZM91.6005 68.5746C94.1172 68.5746 95.6946 66.9601 95.6946 64.3026C95.6946 61.6788 94.1172 59.8961 91.6005 59.8961C89.0334 59.8961 87.4734 61.662 87.4734 64.2856C87.4734 66.9433 89.0334 68.5746 91.6005 68.5746ZM100.308 68.5746C102.809 68.5746 104.403 66.9601 104.403 64.3026C104.403 61.6788 102.809 59.8961 100.308 59.8961C97.7752 59.8961 96.1813 61.662 96.1813 64.2856C96.1813 66.9433 97.7752 68.5746 100.308 68.5746ZM51.0637 68.6588C53.0099 68.6588 54.1844 68.1879 54.1844 68.1879V66.1357C54.1844 66.1357 53.0605 66.4722 51.9192 66.4722C50.8287 66.4722 50.1074 66.0518 49.7887 65.1102H54.47C54.47 65.1102 54.5537 64.8074 54.5537 63.8317C54.5537 62.1664 53.7481 59.8791 50.7449 59.8791C48.1612 59.8791 46.651 61.7627 46.651 64.3867C46.651 67.0105 48.3118 68.6588 51.0637 68.6588ZM107.523 68.6588C108.664 68.6588 109.218 68.4909 109.218 68.4909V66.2201C109.101 66.2538 109.017 66.2538 108.933 66.2538C108.362 66.2538 108.211 66.0687 108.211 65.4801V58.1465C108.211 57.0198 107.742 56.4984 106.466 56.4984C105.275 56.4984 104.017 56.7339 104.017 56.7339V58.6852H104.117C104.788 58.6852 105.023 58.7355 105.023 59.2064V65.9006C105.023 67.6328 105.778 68.6588 107.523 68.6588ZM26.114 59.4252C27.4901 59.4252 27.8926 58.5504 27.8926 57.7936C27.8926 57.0198 27.4731 56.2126 26.114 56.2126C24.7885 56.2126 24.4027 57.0198 24.4027 57.8102C24.4027 58.5671 24.8555 59.4252 26.114 59.4252ZM33.3456 45.8853C33.3456 45.8853 32.7752 45.6835 31.265 45.6835C29.4025 45.6835 28.1946 46.5916 27.7752 47.0962C27.7752 45.8179 27.2887 45.6835 26.047 45.6835C24.8555 45.6835 23.5975 45.9021 23.5975 45.9021V47.8364H23.8156C24.3858 47.8529 24.5871 47.9203 24.5871 48.3745V54.1102H27.7752V49.1651C28.312 48.6773 29.2348 48.3577 30.1576 48.3745V54.1102H33.3456V45.8853ZM18.1946 51.6377V48.5933C18.1946 48.5933 18.53 48.324 18.9664 48.324C19.7047 48.324 19.9731 49.2491 19.9731 50.0565C19.9731 51.1666 19.5537 51.8729 18.8995 51.8729C18.4799 51.8729 18.1946 51.6377 18.1946 51.6377ZM38.1106 45.9021V44.0687L34.9228 44.321V45.9021H34.067V47.9371H34.9228V51.5536C34.9228 53.4204 35.8456 54.3455 37.9763 54.3455C39.2348 54.3455 39.8052 54.1102 39.8052 54.1102V51.9403C39.8052 51.9403 39.5871 51.974 39.2684 51.974C38.3959 51.974 38.1106 51.6377 38.1106 51.0994V47.9371H40.4596V54.1102H43.6476V45.9021H38.1106ZM50.8957 51.5703C50.8957 50.1069 50.1576 49.4172 48.3625 48.7614C47.9932 48.6438 47.4564 48.4754 47.4564 48.1559C47.4564 47.9036 47.6578 47.7522 48.3118 47.7522C49.2684 47.7522 50.2585 47.971 50.2585 47.971V46.087C49.7718 45.9693 49.5366 45.633 49.5366 45.2293C49.5366 44.4724 50.3422 44.1694 51.5503 44.3041V54.1102H54.7382V48.5426C54.7382 48.5426 55.0905 48.2736 55.5772 48.2736C56.1474 48.2736 56.416 48.6101 56.416 49.1316V54.1102H59.6039V49.2154C59.6039 46.8104 58.8824 45.6835 57.1208 45.6835C55.8289 45.6835 54.7382 46.6085 54.7382 46.6085V42.2016H51.0467C48.4129 42.2016 46.9363 43.009 46.9363 44.5731C46.9363 45.0779 47.0704 45.4312 47.2885 45.7507C45.5605 45.8009 44.4194 46.8776 44.4194 48.4082C44.4194 49.7032 45.3088 50.6957 47.0199 51.2171C47.6244 51.402 47.8422 51.5366 47.8422 51.7889C47.8422 52.0582 47.4898 52.2092 46.8858 52.2092C45.7115 52.2092 44.5201 51.7889 44.5201 51.7889V53.9083C44.5201 53.9083 45.4765 54.3455 47.0199 54.3455C49.4865 54.3455 50.8957 53.1344 50.8957 51.5703ZM15.0068 54.1102H17.7079L17.8928 53.4879C17.9093 53.4879 18.547 54.3455 19.7887 54.3455C21.9361 54.3455 23.2282 52.26 23.2282 49.8209C23.2282 47.7859 22.4564 45.6835 20.2417 45.6835C18.8995 45.6835 18.1946 46.4741 18.1946 46.4741V43.8332C18.1946 42.7065 17.7248 42.2016 16.4497 42.2016C15.2582 42.2016 14 42.4035 14 42.4035V44.3547H14.1343C14.7718 44.3547 15.0068 44.4052 15.0068 44.8931V54.1102ZM41.9863 45.3807C43.379 45.3807 43.7648 44.5059 43.7648 43.7492C43.7648 42.9755 43.3623 42.1681 41.9863 42.1681C40.6946 42.1681 40.2752 42.9755 40.2752 43.7659C40.2752 44.5229 40.7282 45.3807 41.9863 45.3807ZM31.7178 45.2124C33.0939 45.2124 33.4966 44.3378 33.4966 43.5811C33.4966 42.8072 33.077 42 31.7178 42C30.3928 42 30.007 42.8072 30.007 43.598C30.007 44.3547 30.4598 45.2124 31.7178 45.2124Z" fill="white"/>
</g>
<defs>
<linearGradient id="paint0_linear" x1="0" y1="64" x2="128" y2="64" gradientUnits="userSpaceOnUse">
<stop stop-color="#7FA8FF"/>
<stop offset="0.489583" stop-color="#9B43FF"/>
<stop offset="1" stop-color="#E83563"/>
</linearGradient>
</defs>
</svg>
