<svg width="128" height="128" viewBox="0 0 128 128" fill="none" xmlns="http://www.w3.org/2000/svg">
<circle cx="64" cy="64" r="64" fill="#F3711C"/>
<path d="M16.9534 77.8694V50.7707H29.9672C35.0824 50.8082 39.3702 53.0977 39.3702 57.8645C39.3702 61.2047 36.5493 63.2316 33.5026 63.7945V63.8696C37.1135 64.3575 40.0473 66.6472 40.0473 70.5128C40.0473 78.3948 29.9672 77.8694 29.7039 77.8694H16.9534ZM28.8764 72.6146C30.7572 72.6146 32.1487 71.4887 32.1487 69.7999C32.1487 68.2986 31.0956 66.8724 29.4031 66.7597H24.4757V72.6146H28.8764ZM24.4757 61.5426L28.3122 61.505C30.3435 61.505 31.6599 60.7169 31.6599 58.6525C31.6599 57.1138 30.3435 56.0252 28.5755 56.0252H24.4757V61.5426Z" fill="white"/>
<path d="M60.2119 67.7356H54.683V62.4808H67.7345V76.9686C61.6412 77.8693 60.4752 78.4324 53.9307 78.4324C45.468 78.1696 40.3151 72.8025 40.3151 64.3201C40.3151 55.8377 45.468 50.4704 53.9307 50.2077C60.5128 50.02 67.4336 50.9959 67.5462 58.8776H60.0238C59.6477 56.2505 57.5789 55.4623 55.0967 55.4623C50.019 55.4623 48.2135 59.9285 48.2135 64.3201C48.2135 69.6497 50.8841 73.1778 56.3001 73.1778C57.6918 73.1778 59.0835 72.9523 60.2119 72.7273V67.7356Z" fill="white"/>
<path d="M77.7754 78.4324C73.4499 78.4324 69.8014 75.2796 69.6885 70.8132H72.3215C72.3967 74.9793 75.481 76.1803 79.1294 76.1803C82.1758 76.1803 85.6739 74.4162 85.6739 70.9631C85.6739 68.2609 83.718 66.9849 81.4236 66.2343C77.0231 64.7704 70.328 63.3816 70.328 57.5266C70.328 52.7975 74.6911 50.2077 78.9787 50.2077C82.552 50.2077 87.216 51.4463 87.8178 56.6633H85.1849C85.1097 53.323 82.0633 52.4597 79.2799 52.4597C76.4589 52.4597 72.9609 53.886 72.9609 57.1889C72.9609 64.8829 88.3068 61.3924 88.3068 70.7383C88.3068 76.6307 83.229 78.4324 77.7754 78.4324Z" fill="#231F20"/>
<path d="M93.5857 50.7707V68.2986C93.774 73.2155 96.5944 76.1803 101.07 76.1803C105.546 76.1803 108.367 73.2155 108.555 68.2986V50.7707H111V68.336C110.925 74.1535 107.653 78.4324 101.07 78.4324C94.4884 78.4324 91.216 74.1535 91.1408 68.336V50.7707H93.5857Z" fill="#231F20"/>
</svg>
