<svg width="128" height="128" viewBox="0 0 128 128" fill="none" xmlns="http://www.w3.org/2000/svg">
<mask id="mask0" mask-type="alpha" maskUnits="userSpaceOnUse" x="0" y="0" width="128" height="128">
<circle cx="64" cy="64" r="64" fill="#E3E3E3"/>
</mask>
<g mask="url(#mask0)">
<circle cx="64" cy="64" r="64" fill="#222222"/>
<path d="M72.9583 61.3145L115.799 21.9706L121.482 28.5279L72.9583 61.3145Z" fill="#C25F4E"/>
<path d="M73.289 61.032L122.914 30.6895L127.226 38.2197L73.289 61.032Z" fill="#E8934A"/>
<path d="M73.6611 60.5831L128.059 39.9868L130.896 48.1869L73.6611 60.5831Z" fill="#F2EC77"/>
<path d="M74.0731 60.4439L131.422 50.7257L132.625 59.3192L74.0731 60.4439Z" fill="#6BB15C"/>
<path d="M74.7069 61.0716L132.868 61.8713L132.499 70.5407L74.7069 61.0716Z" fill="#5771A7"/>
<path d="M75.2611 60.8902L132.261 72.4797L130.288 80.9297L75.2611 60.8902Z" fill="#505E88"/>
<path d="M75.6838 60.9923L129.378 83.3576L125.813 91.2684L75.6838 60.9923Z" fill="#57437E"/>
<g filter="url(#filter0_d)">
<path d="M57.7818 31L22 90H94L57.7818 31Z" fill="white"/>
</g>
</g>
<defs>
<filter id="filter0_d" x="12" y="21" width="92" height="79" filterUnits="userSpaceOnUse" color-interpolation-filters="sRGB">
<feFlood flood-opacity="0" result="BackgroundImageFix"/>
<feColorMatrix in="SourceAlpha" type="matrix" values="0 0 0 0 0 0 0 0 0 0 0 0 0 0 0 0 0 0 127 0"/>
<feOffset/>
<feGaussianBlur stdDeviation="5"/>
<feColorMatrix type="matrix" values="0 0 0 0 0.237743 0 0 0 0 0.303379 0 0 0 0 0.44559 0 0 0 0.4 0"/>
<feBlend mode="normal" in2="BackgroundImageFix" result="effect1_dropShadow"/>
<feBlend mode="normal" in="SourceGraphic" in2="effect1_dropShadow" result="shape"/>
</filter>
</defs>
</svg>
