<svg width="128" height="128" viewBox="0 0 128 128" fill="none" xmlns="http://www.w3.org/2000/svg">
<circle cx="64" cy="64" r="64" fill="#0B4E82"/>
<path d="M9.76086 78.1894L27.6089 52.6493H29.8065L29.66 70.9554L46.8012 52.6493H49.2918L42.699 78.1894H37.2783L40.9409 63.1309L27.3159 78.1894H24.5323L24.6788 61.0643L12.6653 78.1894H9.76086Z" fill="white"/>
<path d="M95.7339 52.5014L101.741 52.6493L97.6385 69.0362L114.78 52.6493H118.296L112.582 78.1894H106.282L110.384 61.0643L91.9248 78.1894H89.2877L95.7339 52.5014Z" fill="white"/>
<path d="M72.6499 68.3091L75.5161 57.2259L67.5699 65.0917C68.7575 66.1735 70.1165 67.1101 71.6237 67.8475C71.9648 68.0143 72.307 68.1677 72.6499 68.3091ZM65.7855 63.2001L84.8925 44.3819L78.6865 69.5061C83.8652 69.4692 88.5088 66.678 90.479 61.8158C93.3288 54.7837 89.5068 46.0829 81.943 42.3817C74.3792 38.6807 65.9373 41.3814 63.088 48.4136C61.1159 53.2799 62.339 58.9453 65.7855 63.2001ZM51.9289 52.6493H58.3751L52.5149 76.2702L63.0255 65.9186C60.9312 62.9074 59.6937 59.1864 59.6937 55.1588C59.6937 45.1302 67.368 37 76.8347 37C86.3018 37 93.9758 45.1302 93.9758 55.1588C93.9758 64.8621 86.7918 72.7874 77.7518 73.2922L76.5416 78.1894H70.0954L71.5798 72.4483C68.9421 71.5494 66.5821 69.9912 64.6749 67.9573L42.406 90L51.9289 52.6493Z" fill="white"/>
</svg>
