<svg width="128" height="128" viewBox="0 0 128 128" fill="none" xmlns="http://www.w3.org/2000/svg">
<path d="M128 64C128 76.658 124.246 89.0317 117.214 99.5565C110.182 110.081 100.186 118.284 88.4917 123.128C76.7973 127.972 63.929 129.24 51.5142 126.77C39.0995 124.301 27.6958 118.205 18.7452 109.255C9.79463 100.304 3.69922 88.9005 1.22977 76.4858C-1.23968 64.071 0.0277301 51.2027 4.87174 39.5083C9.71575 27.8138 17.9188 17.8183 28.4435 10.7859C38.9683 3.75353 51.342 0 64 0C80.9739 0 97.2525 6.74284 109.255 18.7452C121.257 30.7475 128 47.0261 128 64" fill="#C6102E"/>
<path d="M103.593 44.2038H98.236V47.4178H103.639C104.018 47.353 104.363 47.1561 104.611 46.862C104.859 46.5679 104.995 46.1956 104.995 45.8108C104.995 45.426 104.859 45.0537 104.611 44.7596C104.363 44.4655 104.018 44.2686 103.639 44.2038H103.593Z" fill="white"/>
<path d="M105.223 53.3334C105.223 53.1193 105.181 52.9073 105.099 52.7095C105.017 52.5117 104.897 52.332 104.745 52.1806C104.594 52.0292 104.414 51.9091 104.216 51.8272C104.019 51.7453 103.807 51.7031 103.593 51.7031H98.236V54.9171H103.639C104.055 54.9053 104.452 54.7347 104.746 54.4402C105.041 54.1457 105.211 53.7497 105.223 53.3334V53.3334Z" fill="white"/>
<path d="M93.5315 32.6055H71.1734C70.6422 32.6055 70.1327 32.8166 69.7571 33.1922C69.3815 33.5678 69.1705 34.0772 69.1705 34.6084V56.9199C69.1705 57.4511 69.3815 57.9606 69.7571 58.3362C70.1327 58.7118 70.6422 58.9228 71.1734 58.9228H93.5315C94.0627 58.9228 94.5721 58.7118 94.9477 58.3362C95.3233 57.9606 95.5344 57.4511 95.5344 56.9199V34.655C95.5406 34.3881 95.4934 34.1226 95.3955 33.8742C95.2976 33.6258 95.1511 33.3995 94.9645 33.2085C94.7778 33.0176 94.5549 32.8659 94.3088 32.7623C94.0628 32.6588 93.7984 32.6055 93.5315 32.6055ZM91.6683 53.4731C91.6683 53.8313 91.526 54.1749 91.2726 54.4282C91.0193 54.6815 90.6757 54.8239 90.3175 54.8239H79.185C78.8755 54.7656 78.5961 54.6011 78.3951 54.3587C78.194 54.1163 78.084 53.8113 78.084 53.4964C78.084 53.1814 78.194 52.8764 78.3951 52.634C78.5961 52.3916 78.8755 52.2271 79.185 52.1688H88.9667V42.3872C89.0249 42.0777 89.1894 41.7983 89.4318 41.5972C89.6742 41.3962 89.9793 41.2861 90.2942 41.2861C90.6091 41.2861 90.9141 41.3962 91.1565 41.5972C91.3989 41.7983 91.5635 42.0777 91.6217 42.3872L91.6683 53.4731Z" fill="white"/>
<path d="M98.236 39.8719H103.639C104.018 39.8071 104.363 39.6103 104.611 39.3162C104.859 39.0221 104.995 38.6497 104.995 38.265C104.995 37.8802 104.859 37.5078 104.611 37.2137C104.363 36.9196 104.018 36.7228 103.639 36.658H98.236V39.8719Z" fill="white"/>
<path d="M83.3771 29.9506V23.9884C83.3123 23.6092 83.1155 23.265 82.8214 23.0169C82.5273 22.7688 82.1549 22.6327 81.7701 22.6327C81.3854 22.6327 81.013 22.7688 80.7189 23.0169C80.4248 23.265 80.228 23.6092 80.1631 23.9884V29.9506H83.3771Z" fill="white"/>
<path d="M66.5153 36.7045H62.6492V39.9185H66.5153V36.7045Z" fill="white"/>
<path d="M55.3363 29.9971V24.0349C55.3762 23.801 55.3646 23.5612 55.3023 23.3322C55.24 23.1032 55.1284 22.8905 54.9754 22.7091C54.8223 22.5277 54.6315 22.3819 54.4163 22.2819C54.2011 22.1819 53.9666 22.1301 53.7293 22.1301C53.4919 22.1301 53.2575 22.1819 53.0422 22.2819C52.827 22.3819 52.6362 22.5277 52.4832 22.7091C52.3302 22.8905 52.2186 23.1032 52.1562 23.3322C52.0939 23.5612 52.0823 23.801 52.1223 24.0349V29.9971H55.3363Z" fill="white"/>
<path d="M66.5153 51.7496H62.6492V54.9636H66.5153V51.7496Z" fill="white"/>
<path d="M57.9915 32.6522H35.6334C35.1022 32.6522 34.5928 32.8632 34.2171 33.2388C33.8415 33.6144 33.6305 34.1239 33.6305 34.6551V57.0131C33.6305 57.5443 33.8415 58.0538 34.2171 58.4294C34.5928 58.805 35.1022 59.0161 35.6334 59.0161H57.9449C58.4761 59.0161 58.9856 58.805 59.3612 58.4294C59.7368 58.0538 59.9478 57.5443 59.9478 57.0131V34.6551C59.9479 34.1318 59.7433 33.6293 59.3777 33.255C59.0121 32.8807 58.5146 32.6643 57.9915 32.6522V32.6522ZM55.8954 53.5663C55.8954 53.9245 55.7531 54.2681 55.4998 54.5214C55.2464 54.7748 54.9029 54.9171 54.5446 54.9171H43.645C43.3356 54.8588 43.0561 54.6943 42.8551 54.4519C42.654 54.2095 42.544 53.9045 42.544 53.5896C42.544 53.2746 42.654 52.9696 42.8551 52.7272C43.0561 52.4848 43.3356 52.3203 43.645 52.262H53.4267V42.4804C53.39 42.2853 53.3967 42.0844 53.4465 41.8922C53.4962 41.7 53.5877 41.5211 53.7145 41.3683C53.8412 41.2155 54.0001 41.0925 54.1798 41.008C54.3596 40.9236 54.5557 40.8798 54.7542 40.8798C54.9528 40.8798 55.1489 40.9236 55.3286 41.008C55.5083 41.0925 55.6672 41.2155 55.7939 41.3683C55.9207 41.5211 56.0122 41.7 56.0619 41.8922C56.1117 42.0844 56.1184 42.2853 56.0817 42.4804L55.8954 53.5663Z" fill="white"/>
<path d="M66.5153 44.2504H62.6492V47.4643H66.5153V44.2504Z" fill="white"/>
<path d="M47.837 29.9971V24.035C47.7722 23.6557 47.5754 23.3116 47.2813 23.0635C46.9872 22.8154 46.6148 22.6793 46.23 22.6793C45.8453 22.6793 45.4729 22.8154 45.1788 23.0635C44.8847 23.3116 44.6879 23.6557 44.623 24.035V29.9971H47.837Z" fill="white"/>
<path d="M24.4077 55.0102H30.9754V51.7963H24.4077C24.0284 51.8611 23.6843 52.0579 23.4362 52.352C23.1881 52.6461 23.052 53.0185 23.052 53.4033C23.052 53.788 23.1881 54.1604 23.4362 54.4545C23.6843 54.7486 24.0284 54.9454 24.4077 55.0102V55.0102Z" fill="white"/>
<path d="M24.4077 76.2504H30.9754V73.0364H24.4077C24.0284 73.1012 23.6843 73.2981 23.4362 73.5922C23.1881 73.8863 23.052 74.2586 23.052 74.6434C23.052 75.0282 23.1881 75.4005 23.4362 75.6946C23.6843 75.9887 24.0284 76.1856 24.4077 76.2504V76.2504Z" fill="white"/>
<path d="M40.2912 61.7176H37.0773V66.3755H40.2912V61.7176Z" fill="white"/>
<path d="M57.9915 68.984H35.6334C35.1022 68.984 34.5928 69.1951 34.2171 69.5707C33.8415 69.9463 33.6305 70.4557 33.6305 70.987V93.345C33.6305 93.8762 33.8415 94.3857 34.2171 94.7613C34.5928 95.1369 35.1022 95.3479 35.6334 95.3479H57.9449C58.4761 95.3479 58.9856 95.1369 59.3612 94.7613C59.7368 94.3857 59.9478 93.8762 59.9478 93.345V70.987C59.9479 70.4637 59.7433 69.9612 59.3777 69.5869C59.0121 69.2126 58.5146 68.9962 57.9915 68.984ZM55.8954 89.8516C55.9017 90.0267 55.8726 90.2013 55.8098 90.365C55.7471 90.5286 55.652 90.678 55.5303 90.8041C55.4085 90.9301 55.2626 91.0304 55.1013 91.0988C54.9399 91.1673 54.7665 91.2025 54.5912 91.2024H43.9711C43.6616 91.1441 43.3822 90.9796 43.1811 90.7372C42.9801 90.4948 42.8701 90.1898 42.8701 89.8749C42.8701 89.5599 42.9801 89.2549 43.1811 89.0125C43.3822 88.7701 43.6616 88.6056 43.9711 88.5474H53.287V79.2315C53.3452 78.922 53.5097 78.6426 53.7521 78.4415C53.9945 78.2405 54.2996 78.1304 54.6145 78.1304C54.9294 78.1304 55.2344 78.2405 55.4768 78.4415C55.7192 78.6426 55.8838 78.922 55.942 79.2315L55.8954 89.8516Z" fill="white"/>
<path d="M55.3362 61.7176H52.1223V66.3755H55.3362V61.7176Z" fill="white"/>
<path d="M47.837 61.7176H44.623V66.3755H47.837V61.7176Z" fill="white"/>
<path d="M30.9754 88.0815H24.4077C24.0284 88.1463 23.6843 88.3432 23.4362 88.6373C23.1881 88.9314 23.052 89.3037 23.052 89.6885C23.052 90.0733 23.1881 90.4456 23.4362 90.7397C23.6843 91.0338 24.0284 91.2307 24.4077 91.2955H30.9754V88.0815Z" fill="white"/>
<path d="M83.3771 61.6245H80.1631V66.2824H83.3771V61.6245Z" fill="white"/>
<path d="M90.923 61.6245H87.709V66.2824H90.923V61.6245Z" fill="white"/>
<path d="M105.223 82.1194C105.223 81.9053 105.181 81.6933 105.099 81.4955C105.017 81.2977 104.897 81.118 104.745 80.9666C104.594 80.8152 104.414 80.6952 104.216 80.6132C104.019 80.5313 103.807 80.4891 103.593 80.4891H98.236V83.7031H103.639C104.055 83.6914 104.452 83.5208 104.746 83.2263C105.041 82.9318 105.211 82.5357 105.223 82.1194V82.1194Z" fill="white"/>
<path d="M93.5315 68.9374H71.1734C70.6422 68.9374 70.1327 69.1484 69.7571 69.524C69.3815 69.8997 69.1705 70.4091 69.1705 70.9403V93.2984C69.1705 93.8296 69.3815 94.339 69.7571 94.7147C70.1327 95.0903 70.6422 95.3013 71.1734 95.3013H93.5315C94.0627 95.3013 94.5721 95.0903 94.9477 94.7147C95.3233 94.339 95.5344 93.8296 95.5344 93.2984V70.9869C95.5406 70.72 95.4934 70.4545 95.3955 70.2061C95.2976 69.9577 95.1511 69.7314 94.9645 69.5404C94.7778 69.3495 94.5549 69.1978 94.3088 69.0942C94.0628 68.9907 93.7984 68.9373 93.5315 68.9374ZM91.6683 89.8049C91.6683 90.1632 91.526 90.5068 91.2726 90.7601C91.0193 91.0134 90.6757 91.1557 90.3175 91.1557H78.9056C78.5961 91.0975 78.3166 90.933 78.1156 90.6906C77.9145 90.4482 77.8045 90.1432 77.8045 89.8282C77.8045 89.5133 77.9145 89.2083 78.1156 88.9659C78.3166 88.7235 78.5961 88.559 78.9056 88.5007H89.0133V78.393C88.9766 78.1979 88.9833 77.9971 89.033 77.8048C89.0828 77.6126 89.1743 77.4337 89.3011 77.2809C89.4278 77.1281 89.5867 77.0051 89.7664 76.9207C89.9461 76.8362 90.1422 76.7925 90.3408 76.7925C90.5393 76.7925 90.7354 76.8362 90.9151 76.9207C91.0949 77.0051 91.2537 77.1281 91.3805 77.2809C91.5072 77.4337 91.5987 77.6126 91.6485 77.8048C91.6982 77.9971 91.705 78.1979 91.6683 78.393V89.8049Z" fill="white"/>
<path d="M98.236 76.2038H103.639C104.018 76.139 104.363 75.9422 104.611 75.6481C104.859 75.354 104.995 74.9816 104.995 74.5968C104.995 74.2121 104.859 73.8397 104.611 73.5456C104.363 73.2515 104.018 73.0547 103.639 72.9899H98.236V76.2038Z" fill="white"/>
<path d="M66.5153 73.0364H62.6492V76.2504H66.5153V73.0364Z" fill="white"/>
<path d="M75.8779 61.6245H72.6639V66.2824H75.8779V61.6245Z" fill="white"/>
<path d="M87.709 98.0029V103.965C87.7738 104.344 87.9706 104.688 88.2647 104.937C88.5588 105.185 88.9312 105.321 89.316 105.321C89.7007 105.321 90.0731 105.185 90.3672 104.937C90.6613 104.688 90.8582 104.344 90.923 103.965V98.0029H87.709Z" fill="white"/>
<path d="M66.5153 80.5822H62.6492V83.7962H66.5153V80.5822Z" fill="white"/>
<path d="M80.1631 98.0029V103.965C80.228 104.344 80.4248 104.688 80.7189 104.937C81.013 105.185 81.3854 105.321 81.7701 105.321C82.1549 105.321 82.5273 105.185 82.8214 104.937C83.1155 104.688 83.3123 104.344 83.3771 103.965V98.0029H80.1631Z" fill="white"/>
<path d="M103.593 88.035H98.236V91.2489H103.639C104.018 91.1841 104.363 90.9873 104.611 90.6932C104.859 90.3991 104.995 90.0267 104.995 89.642C104.995 89.2572 104.859 88.8848 104.611 88.5907C104.363 88.2966 104.018 88.0998 103.639 88.035H103.593Z" fill="white"/>
<path d="M66.5153 88.0815H62.6492V91.2955H66.5153V88.0815Z" fill="white"/>
<path d="M72.6639 98.0029V103.965C72.6239 104.199 72.6355 104.439 72.6979 104.668C72.7602 104.897 72.8718 105.109 73.0248 105.291C73.1779 105.472 73.3686 105.618 73.5839 105.718C73.7991 105.818 74.0336 105.87 74.2709 105.87C74.5082 105.87 74.7427 105.818 74.9579 105.718C75.1732 105.618 75.364 105.472 75.517 105.291C75.67 105.109 75.7816 104.897 75.8439 104.668C75.9063 104.439 75.9179 104.199 75.8779 103.965V98.0029H72.6639Z" fill="white"/>
<path d="M52.1223 98.0495V104.012C52.0823 104.246 52.0939 104.485 52.1562 104.714C52.2186 104.943 52.3302 105.156 52.4832 105.337C52.6362 105.519 52.827 105.665 53.0422 105.765C53.2575 105.865 53.4919 105.916 53.7293 105.916C53.9666 105.916 54.2011 105.865 54.4163 105.765C54.6315 105.665 54.8223 105.519 54.9754 105.337C55.1284 105.156 55.24 104.943 55.3023 104.714C55.3646 104.485 55.3762 104.246 55.3363 104.012V98.0495H52.1223Z" fill="white"/>
<path d="M24.4077 83.7962H30.9754V80.5822H24.4077C24.0284 80.647 23.6843 80.8439 23.4362 81.138C23.1881 81.4321 23.052 81.8045 23.052 82.1892C23.052 82.574 23.1881 82.9464 23.4362 83.2405C23.6843 83.5346 24.0284 83.7314 24.4077 83.7962V83.7962Z" fill="white"/>
<path d="M44.6231 98.0495V104.012C44.5831 104.246 44.5947 104.485 44.657 104.714C44.7194 104.943 44.831 105.156 44.984 105.337C45.137 105.519 45.3278 105.665 45.543 105.765C45.7583 105.865 45.9927 105.916 46.2301 105.916C46.4674 105.916 46.7019 105.865 46.9171 105.765C47.1323 105.665 47.3231 105.519 47.4762 105.337C47.6292 105.156 47.7408 104.943 47.8031 104.714C47.8654 104.485 47.877 104.246 47.8371 104.012V98.0495H44.6231Z" fill="white"/>
<path d="M37.2635 98.0495V104.012C37.2235 104.246 37.2351 104.485 37.2974 104.714C37.3598 104.943 37.4713 105.156 37.6244 105.337C37.7774 105.519 37.9682 105.665 38.1834 105.765C38.3987 105.865 38.6331 105.916 38.8705 105.916C39.1078 105.916 39.3422 105.865 39.5575 105.765C39.7727 105.665 39.9635 105.519 40.1165 105.337C40.2696 105.156 40.3812 104.943 40.4435 104.714C40.5058 104.485 40.5174 104.246 40.4774 104.012V98.0495H37.2635Z" fill="white"/>
<path d="M40.2912 29.9971V24.0349C40.3312 23.801 40.3196 23.5612 40.2573 23.3322C40.1949 23.1032 40.0833 22.8905 39.9303 22.7091C39.7773 22.5277 39.5865 22.3819 39.3713 22.2819C39.156 22.1819 38.9216 22.1301 38.6842 22.1301C38.4469 22.1301 38.2124 22.1819 37.9972 22.2819C37.782 22.3819 37.5912 22.5277 37.4381 22.7091C37.2851 22.8905 37.1735 23.1032 37.1112 23.3322C37.0489 23.5612 37.0373 23.801 37.0772 24.0349V29.9971H40.2912Z" fill="white"/>
<path d="M24.4077 47.4643H30.9754V44.2504H24.4077C24.0284 44.3152 23.6843 44.512 23.4362 44.8061C23.1881 45.1002 23.052 45.4726 23.052 45.8573C23.052 46.2421 23.1881 46.6145 23.4362 46.9086C23.6843 47.2027 24.0284 47.3995 24.4077 47.4643V47.4643Z" fill="white"/>
<path d="M24.4077 39.9185H30.9754V36.7045H24.4077C24.0284 36.7693 23.6843 36.9662 23.4362 37.2603C23.1881 37.5544 23.052 37.9267 23.052 38.3115C23.052 38.6963 23.1881 39.0687 23.4362 39.3627C23.6843 39.6568 24.0284 39.8537 24.4077 39.9185V39.9185Z" fill="white"/>
<path d="M75.8779 29.9505V23.9884C75.9179 23.7544 75.9063 23.5146 75.8439 23.2856C75.7816 23.0566 75.67 22.844 75.517 22.6626C75.364 22.4812 75.1732 22.3354 74.9579 22.2354C74.7427 22.1353 74.5082 22.0835 74.2709 22.0835C74.0336 22.0835 73.7991 22.1353 73.5839 22.2354C73.3686 22.3354 73.1779 22.4812 73.0248 22.6626C72.8718 22.844 72.7602 23.0566 72.6979 23.2856C72.6355 23.5146 72.6239 23.7544 72.6639 23.9884V29.9505H75.8779Z" fill="white"/>
<path d="M90.923 29.9506V23.9884C90.8582 23.6092 90.6613 23.265 90.3672 23.0169C90.0731 22.7688 89.7007 22.6327 89.316 22.6327C88.9312 22.6327 88.5588 22.7688 88.2647 23.0169C87.9706 23.265 87.7738 23.6092 87.709 23.9884V29.9506H90.923Z" fill="white"/>
</svg>
