<svg width="128" height="128" viewBox="0 0 128 128" fill="none" xmlns="http://www.w3.org/2000/svg">
<mask id="mask0" mask-type="alpha" maskUnits="userSpaceOnUse" x="0" y="0" width="128" height="128">
<circle cx="64" cy="64" r="64" fill="black"/>
</mask>
<g mask="url(#mask0)">
<circle cx="64" cy="64" r="64" fill="#0B3D91"/>
<path d="M49 37H60V72.25C60 75.5078 59.0273 78.3906 57.5742 80.8984C56.1445 83.3828 54.1172 85.3047 51.4922 86.6641C48.8672 88.0234 45.9023 88.7031 42.5977 88.7031C37.1836 88.7031 32.9648 87.332 29.9414 84.5898C26.918 81.8242 25.4062 77.9219 25.4062 72.8828H36.0234C36.0234 75.3906 36.5508 77.2422 37.6055 78.4375C38.6602 79.6328 40.3242 80.2305 42.5977 80.2305C44.6133 80.2305 46.2188 79.5391 47.4141 78.1562C48.6094 76.7734 49 74.8047 49 72.25V37Z" fill="white"/>
<path d="M79.5 79.5273H101.73V88H68.7891L69 37H79.5V79.5273Z" fill="white"/>
<path d="M100.5 43.5C104 51.5 77.5 73 27 91.5L28.5 93.5C68.5 79.5 111.5 52.5 106 41.5C100.5 30.5 50.5 49 23.5 67L24.5 68.5C45 54 95.9063 33 100.5 43.5Z" fill="#FC3D21"/>
<circle cx="27.5" cy="92.5" r="5.5" fill="#FC3D21" stroke="#0B3D91" stroke-width="2"/>
<rect x="49" y="45" width="11" height="11" fill="white"/>
<rect x="69" y="40" width="10.5" height="11" fill="white"/>
</g>
</svg>
