<svg width="380" height="380" viewBox="0 0 380 380" fill="none" xmlns="http://www.w3.org/2000/svg">
<rect width="380" height="380" fill="white"/>
<path d="M206.5 294H126C126 230 149.5 212 234.5 179.5C259 195 270 213 270 238C270 263 248.5 294 206.5 294Z" fill="#3ACFFE"/>
<path d="M262.5 207C243.5 231.5 219.5 239.5 183 239.5C206.5 224 256.5 196.5 256.5 196.5C256.5 196.5 260.833 203.833 262.5 207Z" fill="black" fill-opacity="0.15"/>
<path fill-rule="evenodd" clip-rule="evenodd" d="M98 140L111 85H189C231 85 270.5 112.5 270.5 159C270.5 215.5 218.5 239.5 183 239.5H148L135 294H79L115 140H98ZM171.5 140H187C200 140 215.5 143.5 215.5 160.5C215.5 177.5 196 184 182 184H161L171.5 140Z" fill="#3F4177"/>
<path d="M219.5 140H268L269.5 147H239.5C230 147 220 151.5 217.5 158.5L219.5 140Z" fill="black" fill-opacity="0.25"/>
<path d="M236 85L300 85L287 140H244C221 140 218 157 215 166C212 175 200.5 184 184 184H161C156 176.5 154 167.5 154 157C154 114.5 187 85 236 85Z" fill="#3ACFFE"/>
</svg>
