<svg width="221" height="209" viewBox="0 0 221 209" fill="none" xmlns="http://www.w3.org/2000/svg">
<rect width="221" height="209" fill="white"/>
<path d="M127.5 209H47C46.9999 145 70.5001 127 155.5 94.5C180 110 191 128 191 153C191 178 169.5 209 127.5 209Z" fill="#6FE5FF"/>
<path d="M183.5 122C164.5 146.5 140.5 154.5 104 154.5C127.5 139 177.5 111.5 177.5 111.5C177.5 111.5 181.833 118.833 183.5 122Z" fill="#00CDFA"/>
<path fill-rule="evenodd" clip-rule="evenodd" d="M19 55L32 0H110C152 0 191.5 27.5 191.5 74C191.5 130.5 139.5 154.5 104 154.5H69L56 209H0L36 55H19ZM92.5 55H108C121 55 136.5 58.5 136.5 75.5C136.5 92.5 117 99 103 99H82L92.5 55Z" fill="#007BFF"/>
<path d="M140.5 55H189L190.5 62H160.5C151 62 141 66.5 138.5 73.5L140.5 55Z" fill="#006FE6"/>
<path d="M157 2.06702e-06L221 3.89623e-05L208 55H165C142 55 139 72 136 81C133 90 121.5 99 105 99H82C77 91.5 75 82.5 75 72C75 29.5 108 3.89623e-05 157 2.06702e-06Z" fill="#6FE5FF"/>
</svg>
